<svg height="1500" viewBox="0 0 1500 1500" width="1500" xmlns="http://www.w3.org/2000/svg" xmlns:xlink="http://www.w3.org/1999/xlink"><g mask="url(#i)" transform="translate(642 8507)"><path d="m-642-8507h1500v1500h-1500z" fill="#fff"/><g><g><use fill="#142663" transform="translate(-298.534 -7894.7)" xlink:href="#a"/></g><g><use fill="#828282" transform="translate(-349.35 -8372)" xlink:href="#b"/></g><g><g><g><g><use fill="#f2f2f2" transform="translate(-591 -7849.3)" xlink:href="#c"/></g><g><use fill="#142663" transform="translate(-591 -7854.67)" xlink:href="#d"/></g><g><use fill="#142663" transform="translate(94.4211 -7789.62)" xlink:href="#e"/></g><g><use fill="#142663" transform="translate(-531.036 -7789.62)" xlink:href="#f"/></g></g></g><g><g><g><path d="m156.097 0 73.396 48.0649-100.274 176.5011-129.219-105.586z" fill="#687396" transform="translate(-143.962 -7903.57)"/></g><g><path d="m73.3964 0-73.3964 48.0649 100.274 176.5011 129.219-105.586z" fill="#687396" transform="translate(-371.826 -7903.42)"/></g><g><use fill="#a30103" transform="translate(-225.69 -7784.48)" xlink:href="#g"/></g><g><use fill="#cc0003" transform="translate(-229.243 -7691.86)" xlink:href="#h"/></g></g></g></g></g><g><g><use fill="#142663" transform="translate(198.466 -7742.7)" xlink:href="#a"/></g><g><use fill="#828282" transform="translate(147.65 -8220)" xlink:href="#b"/></g><g><g><g><g><use fill="#f2f2f2" transform="translate(-94 -7697.3)" xlink:href="#c"/></g><g><use fill="#142663" transform="translate(-94 -7702.67)" xlink:href="#d"/></g><g><use fill="#142663" transform="translate(591.421 -7637.62)" xlink:href="#e"/></g><g><use fill="#142663" transform="translate(-34.0357 -7637.62)" xlink:href="#f"/></g></g></g><g><g><g><path d="m156.097 0 73.396 48.0649-100.274 176.5011-129.219-105.586z" fill="#687396" transform="translate(353.038 -7751.57)"/></g><g><path d="m73.3964 0-73.3964 48.0649 100.274 176.5011 129.219-105.586z" fill="#687396" transform="translate(125.174 -7751.42)"/></g><g><use fill="#a30103" transform="translate(271.31 -7632.48)" xlink:href="#g"/></g><g><use fill="#cc0003" transform="translate(267.757 -7539.86)" xlink:href="#h"/></g></g></g></g></g></g><defs><path id="a" d="m0 0h312.193l-156.096 118.98z"/><path id="b" d="m58.8121 488.497c-10.497 3.38 148.0439 113.39 148.0439 113.39l159.047-104.389c-31.709-10.035-39.367-54.867-17.111-100.165 6.701-13.639 12.245-29.429 12.319-35.088.075-5.659 8.22-19.738 18.101-31.288 26.277-30.715 41.903-96.771 25.153-106.331-3.453-1.971-6.164-28.988-6.169-61.491-.008-43.95-2.615-62.693-10.78-77.4803-16.24-29.4142-49.689-51.2265-86.88-56.6561-18.693-2.7291-37.946-9.7737-46.139-16.8819-10.849-9.41298-21.705-12.1795067-47.541-12.11562405-66.121.16350005-137.1736 35.62012405-173.9662 86.81252405-26.0573 36.2554-34.03361 75.5784-32.761262 161.5134.658601 44.48 2.809412 54.69 14.631562 69.457 7.6227 9.522 13.8594 19.876 13.8594 23.01s5.2283 10.277 11.6182 15.875c6.3901 5.597 13.6672 21.696 16.1715 35.776s8.3637 30.649 13.0208 36.821 8.4676 20.641 8.4676 32.154c0 18.292-2.4079 21.708-19.0855 27.077z"/><path id="c" d="m768.107 16.9813c25.72 10.8778 48.813 26.4462 68.639 46.2725 19.825 19.8264 35.394 42.9202 46.273 68.6392 11.267 26.64 16.981 54.926 16.981 84.07v316.981c0 18.914-15.388 34.334-34.302 34.378l-117.744.266-.419 466.242h-34.753-559.901l.792-466.424-119.3379-.099c-18.932-.017-34.3351-15.431-34.3351-34.364v-316.979c0-29.144 5.71375-57.429 16.9813-84.07 10.8789-25.719 26.4473-48.8138 46.2736-68.6402 19.8263-19.8252 42.9201-35.3947 68.6391-46.2725 26.64-11.26863 54.926-16.9813 84.07-16.9813l79.424 70.8273h327.506l61.142-70.8273c29.145 0 57.431 5.71267 84.071 16.9813z"/><path id="d" d="m768.107 16.9813c25.72 10.8778 48.813 26.4462 68.639 46.2725 19.825 19.8264 35.394 42.9202 46.273 68.6392 11.267 26.64 16.981 54.926 16.981 84.07v316.981c0 18.914-15.388 34.334-34.302 34.378l-117.744.266-.419 466.242h-34.753-559.901l.792-466.424-119.3379-.099c-18.932-.017-34.3351-15.431-34.3351-34.364v-316.979c0-29.144 5.71375-57.429 16.9813-84.07 10.8789-25.719 26.4473-48.8138 46.2736-68.6402 19.8263-19.8252 42.9201-35.3947 68.6391-46.2725 26.64-11.26863 54.926-16.9813 84.07-16.9813h70.835c-3.045 6.39871-6.131 14.0621-9.149 23.6194h-61.687c-106.229 0-192.3447 86.1146-192.3447 192.3436v316.979c0 5.928 4.8076 10.738 10.7361 10.744l121.1716.101v-244.687h22.546l-1.572 700.372c-.01 5.928 4.787 10.738 10.717 10.738h525.564c5.929 0 10.746-4.81 10.756-10.738l.915-700.372h23.083v244.868l118.111-.269c5.928-.011 10.736-4.829 10.736-10.758v-316.978c0-106.228-86.117-192.3436-192.345-192.3436h-60.83c-.2-.6324-.404-1.2615-.608-1.8874-2.217-6.7423-4.812-14.23177-8.295-21.732h69.732c29.145 0 57.431 5.71267 84.071 16.9813z"/><path id="e" d="m154.614 280.415c0 8.894-7.212 16.104-16.104 16.104-8.894 0-16.105-7.21-16.104-16.104v-128.76c0-65.8629-54.9114-119.4467-122.40495155-119.4467l-.00104845-32.2083c85.2542 0 154.614 68.0325 154.614 151.655z"/><path id="f" d="m0 151.655c0-83.6225 69.3594-151.655 154.613-151.655v32.2083c-67.4939 0-122.4047 53.5838-122.4047 119.4467v128.76c0 8.894-7.2104 16.104-16.1042 16.104-8.89375 0-16.1041-7.21-16.1041-16.104z"/><path id="g" d="m0 67.7637 34.1138 26.0024h97.1732l34.113-26.0024-82.6998-67.7637z"/><path id="h" d="m37.2151 0-37.2151 408.727 85.8015 92.437 85.8015-92.437-37.215-408.727z"/><mask id="i"><path d="m-642-8507h1500v1500h-1500z" fill="#fff"/></mask></defs></svg>