<svg height="1500" viewBox="0 0 1500 1500" width="1500" xmlns="http://www.w3.org/2000/svg" xmlns:xlink="http://www.w3.org/1999/xlink"><g mask="url(#a)" transform="translate(2557 8507)"><path d="m-2557-8507h1500v1500h-1500z" fill="#fff"/><g><g><path d="m0 0h450.946l-225.473 171.861z" fill="#142663" transform="translate(-2034.55 -7689.57)"/></g><g><path d="m84.9509 705.607c-15.1624 4.882 213.8401 163.785 213.8401 163.785l229.735-150.784c-45.801-14.495-56.863-79.252-24.716-144.683 9.68-19.701 17.688-42.508 17.795-50.682.108-8.174 11.873-28.511 26.146-45.194 37.956-44.366 60.526-139.78 36.332-153.59-4.989-2.847-8.904-41.87-8.911-88.819-.011-63.484-3.777-90.556-15.571-111.917-23.458-42.4867-71.773-73.9934-125.493-81.8362-27.001-3.9419-54.812-14.1175-66.646-24.3849-15.671-13.59652-31.351-17.5926208-68.671-17.50034584-95.507.23616684-198.139 51.45124584-251.2836 125.39544584-37.63823 52.369-49.15958 109.17-47.321734 233.297.951314 64.249 4.058044 78.997 21.134434 100.328 11.0106 13.753 20.0192 28.71 20.0192 33.236s7.5519 14.845 16.7819 22.93 19.7414 31.34 23.3588 51.677c3.6173 20.338 12.0808 44.271 18.808 53.186 6.727 8.914 12.231 29.814 12.231 46.444 0 26.422-3.478 31.357-27.5681 39.112z" fill="#828282" transform="translate(-2107.95 -8379)"/></g><g><g><g><g><path d="m1109.49 24.5285c37.15 15.7124 70.51 38.2001 99.14 66.8381 28.64 28.6384 51.13 61.9954 66.84 99.1454 16.28 38.481 24.53 79.337 24.53 121.434v457.862c0 27.32-22.23 49.593-49.55 49.657l-170.07.385-.61 673.46h-50.2-808.742l1.144-673.724-172.3769-.143c-27.3462-.025-49.5951-22.289-49.5951-49.637v-457.858c0-42.097 8.25319-82.954 24.5285-121.435 15.714-37.15 38.2017-70.508 66.8397-99.1464 28.6378-28.6365 61.9948-51.1257 99.1448-66.8381 38.481-16.27686 79.338-24.5285 121.435-24.5285l114.724 102.306h473.064l88.316-102.306c42.098 0 82.958 8.25164 121.438 24.5285z" fill="#f2f2f2" transform="translate(-2457 -7623.99)"/></g><g><path d="m1109.49 24.5285c37.15 15.7124 70.51 38.2001 99.14 66.8381 28.64 28.6384 51.13 61.9954 66.84 99.1454 16.28 38.481 24.53 79.337 24.53 121.434v457.862c0 27.32-22.23 49.593-49.55 49.657l-170.07.385-.61 673.46h-50.2-808.742l1.144-673.724-172.3769-.143c-27.3462-.025-49.5951-22.289-49.5951-49.637v-457.858c0-42.097 8.25319-82.954 24.5285-121.434 15.714-37.151 38.2017-70.509 66.8397-99.1474 28.6378-28.6365 61.9948-51.1257 99.1448-66.8381 38.481-16.27686 79.338-24.5285 121.435-24.5285h102.317c-4.398 9.24258-8.855 20.312-13.214 34.1169h-89.105c-153.442 0-277.8306 124.3871-277.8306 277.8291v457.859c0 8.563 6.9443 15.51 15.5076 15.52l175.026.146v-353.438h32.566l-2.27 1011.647c-.016 8.56 6.915 15.51 15.48 15.51h759.145c8.57 0 15.52-6.95 15.54-15.51l1.32-1011.647h33.34v353.698l170.61-.388c8.56-.017 15.5-6.975 15.5-15.54v-457.857c0-153.44-124.39-277.8291-277.826-277.8291h-87.865c-.29-.9134-.585-1.8221-.88-2.7262-3.202-9.7389-6.95-20.557-11.981-31.3907h100.724c42.098 0 82.958 8.25164 121.438 24.5285z" fill="#142663" transform="translate(-2457 -7631.74)"/></g><g><path d="m223.331 405.044c0 12.846-10.417 23.261-23.262 23.261-12.846 0-23.261-10.415-23.26-23.261v-185.987c0-95.135-79.3169-172.5339-176.80748558-172.5339l-.00151442-46.5231c123.145 0 223.331 98.2691 223.331 219.057z" fill="#142663" transform="translate(-1466.95 -7537.78)"/></g><g><path d="m0 219.057c0-120.7879 100.186-219.057 223.329-219.057v46.5231c-97.49 0-176.8059 77.3989-176.8059 172.5339v185.987c0 12.846-10.415 23.261-23.2616 23.261-12.8465 0-23.2615-10.415-23.2615-23.261z" fill="#142663" transform="translate(-2370.39 -7537.78)"/></g></g></g><g><g><g><path d="m225.473 0 106.017 69.4271-144.84 254.9459-186.65-152.512z" fill="#687396" transform="translate(-1811.28 -7702.38)"/></g><g><path d="m106.017 0-106.017 69.4271 144.84 254.9459 186.65-152.512z" fill="#687396" transform="translate(-2140.42 -7702.17)"/></g><g><path d="m0 97.8809 49.2756 37.5591h140.3604l49.276-37.5591-119.456-97.8809z" fill="#a30103" transform="translate(-1929.33 -7530.37)"/></g><g><path d="m53.7551 0-53.7551 590.383 123.935 133.52 123.936-133.52-53.755-590.383z" fill="#cc0003" transform="translate(-1934.46 -7396.58)"/></g></g></g></g></g></g><mask id="a"><path d="m-2557-8507h1500v1500h-1500z" fill="#fff"/></mask></svg>