<svg height="202" viewBox="0 0 180 202" width="180" xmlns="http://www.w3.org/2000/svg"><g transform="translate(-4792 5677)"><path d="m121.304 8.36328v21.33252c-.795 3.4136-2.558 6.5488-5.163 9.0918-3.663 3.5718-8.546 5.5405-13.741 5.5405h-32.6622v-6.4946c0-2.7446-2.2109-4.9897-4.9121-4.9897h-8.3477c-2.7002 0-4.9101 2.246-4.9101 4.9897v6.4946h-32.6646c-5.1948 0-10.07615-1.9687-13.7407-5.5405-2.60694-2.5396-4.366702-5.6772-5.1626-9.0894v-21.33492c0-4.59863 3.70605-8.36328 8.23291-8.36328h104.84009c4.526 0 8.231 3.76465 8.231 8.36328zm-56.4778 49.44822c.4321 0 .7929-.3672.7929-.8056v-6.4961-4.1817-6.4946c0-.439-.3608-.8086-.7929-.8086h-8.3482c-.4306 0-.7959.3696-.7959.8086v6.4946 4.1817 6.4961c0 .4384.3653.8056.7959.8056zm37.5738-6.3008c6.267 0 12.156-2.3837 16.594-6.7075.844-.8222 1.613-1.6953 2.31-2.6118v45.2827c0 4.6021-3.705 8.3638-8.231 8.3638h-104.84009c-4.52686 0-8.23291-3.7617-8.23291-8.3638v-45.2827c.696289.9165 1.46777 1.7896 2.31104 2.6118 4.43652 4.3238 10.32716 6.7075 16.59226 6.7075h32.6646v6.4956c0 2.7413 2.2099 4.9878 4.9101 4.9878h8.3477c2.7012 0 4.9121-2.247 4.9121-4.9878v-6.4956z" fill="#fff" fill-rule="evenodd" transform="translate(4821.53 -5571.17)"/><path d="m47.3027 59.855c-17.6152 3.6714-47.3027-27.1553-47.3027-27.1553l26.5996 66.354c1.4976-2.3872 4.3525-4.0098 7.6079-4.0098h111.0545c3.8 0 7.054 2.2115 8.24 5.2691l26.498-67.6133s-26.085 36.8413-53.641 27.1553c-27.5568-9.6861-36.359-59.855-36.359-59.855s-10.6416 53.1743-42.6973 59.855z" fill="#fff" fill-rule="evenodd" transform="translate(4792 -5676.77)"/></g></svg>