<?xml version="1.0" encoding="UTF-8"?>
<svg width="348px" height="375px" viewBox="0 0 348 375" version="1.1" xmlns="http://www.w3.org/2000/svg" xmlns:xlink="http://www.w3.org/1999/xlink">
    <!-- Generator: Sketch 42 (36781) - http://www.bohemiancoding.com/sketch -->
    <title>Group</title>
    <desc>Created with Sketch.</desc>
    <defs></defs>
    <g id="Page-1" stroke="none" stroke-width="1" fill="none" fill-rule="evenodd">
        <g id="Artboard" transform="translate(-26.000000, -13.000000)">
            <g id="Group" transform="translate(26.000000, 13.000000)">
                <path d="M291.606913,210.845618 L291.606913,252.159865 C290.06845,258.771099 286.659677,264.842933 281.624495,269.767945 C274.541938,276.685873 265.102438,280.49867 255.059045,280.49867 L191.911721,280.49867 L191.911721,267.920618 C191.911721,262.605376 187.637563,258.256759 182.414764,258.256759 L166.27615,258.256759 C161.055696,258.256759 156.78271,262.60657 156.78271,267.920618 L156.78271,280.49867 L93.6318687,280.49867 C83.5884752,280.49867 74.1513205,276.685873 67.0664187,269.767945 C62.0265465,264.850093 58.6236361,258.773486 57.0851735,252.164638 L57.0851735,210.845618 C57.0851735,201.939545 64.2498126,194.648094 73.0021639,194.648094 L275.692267,194.648094 C284.443446,194.648094 291.606913,201.939545 291.606913,210.845618 Z M182.415936,302.739387 C183.252006,302.739387 183.949708,302.028142 183.949708,301.178467 L183.949708,288.598028 L183.949708,280.49867 L183.949708,267.920618 C183.949708,267.070943 183.252006,266.354925 182.415936,266.354925 L166.27615,266.354925 C165.443598,266.354925 164.737687,267.070943 164.737687,267.920618 L164.737687,280.49867 L164.737687,288.598028 L164.737687,301.178467 C164.737687,302.028142 165.443598,302.739387 166.27615,302.739387 L182.415936,302.739387 L182.415936,302.739387 Z M287.139274,275.609459 C278.560468,283.983291 267.174438,288.599222 255.059045,288.599222 L191.911721,288.599222 L191.911721,301.179661 C191.911721,306.487742 187.637563,310.839939 182.414764,310.839939 L166.27615,310.839939 C161.055696,310.839939 156.78271,306.488935 156.78271,301.179661 L156.78271,288.599222 L93.6318687,288.599222 C81.5188209,288.599222 70.1304452,283.983291 61.5528126,275.609459 C59.9228865,274.016319 58.4313283,272.325323 57.0851735,270.550791 L57.0851735,358.249887 C57.0851735,367.16312 64.2498126,374.448604 73.0021639,374.448604 L275.692267,374.448604 C284.443446,374.448604 291.606913,367.16312 291.606913,358.249887 L291.606913,270.550791 C290.258413,272.325323 288.772717,274.016319 287.139274,275.609459 Z" id="Shape" fill="#142663"></path>
                <path d="M296.771654,194.277106 L348,63.3299768 C348,63.3299768 297.569461,134.680843 244.293776,115.921541 C191.018092,97.1622381 174,0 174,0 C174,0 153.425833,102.982543 91.4517839,115.921541 C57.3956921,123.031802 0,63.3299768 0,63.3299768 L51.4265365,191.838977 C54.3219817,187.21512 59.8408944,184.072743 66.134926,184.072743 L280.84101,184.072743 C288.187377,184.072743 294.477481,188.354895 296.771654,194.277106 Z" id="Combined-Shape" fill="#CC0003"></path>
            </g>
        </g>
    </g>
</svg>
