<svg height="1116" viewBox="0 0 1040 1116" width="1040" xmlns="http://www.w3.org/2000/svg" xmlns:xlink="http://www.w3.org/1999/xlink"><g filter="url(#a)" transform="translate(-350 5350)"><g><path d="m673.913 46.4634v118.5126c-4.421 18.964-14.216 36.382-28.685 50.51-20.352 19.844-47.477 30.782-76.338 30.782h-181.457v-36.081c0-15.248-12.282-27.722-27.291-27.722h-46.375c-15.001 0-27.28 12.478-27.28 27.722v36.081h-181.468c-28.8601 0-55.9784-10.938-76.3372-30.782-14.4825-14.108-24.2609-31.539-28.6818-50.496v-118.5266c0-25.5474 20.5881-46.4634 45.7385-46.4634h582.4425c25.147 0 45.732 20.916 45.732 46.4634zm-313.767 263.6026c2.402 0 4.407-2.04 4.407-4.477v-36.088-23.233-36.081c0-2.438-2.005-4.492-4.407-4.492h-46.379c-2.392 0-4.421 2.054-4.421 4.492v36.081 23.233 36.088c0 2.437 2.029 4.477 4.421 4.477zm208.744-40.562c34.815 0 67.533-13.241 92.185-37.261 4.694-4.571 8.963-9.421 12.838-14.512v251.571c0 25.568-20.585 46.467-45.732 46.467h-582.4425c-25.1504 0-45.7385-20.899-45.7385-46.467v-251.571c3.86829 5.091 8.15436 9.941 12.838 14.512 24.6484 24.02 57.3736 37.261 92.181 37.261h181.468v36.088c0 15.23 12.279 27.711 27.28 27.711h46.375c15.009 0 27.291-12.484 27.291-27.711v-36.088z" fill="#142663" fill-rule="evenodd" transform="translate(534.038 -4772.7)"/></g><g><path d="m262.792 332.528c-97.862 20.396-262.792-150.862-262.792-150.862l147.778 368.636c8.32-13.264 24.179-22.278 42.265-22.278h616.972c21.11 0 39.185 12.283 45.777 29.271l147.208-375.629s-144.915 204.674-298.006 150.862-201.994-332.528-201.994-332.528-59.121 295.412-237.208 332.528z" fill="#cc0003" fill-rule="evenodd" transform="translate(370 -5331.06)"/></g></g><filter id="a" color-interpolation-filters="sRGB" filterUnits="userSpaceOnUse" height="1116" width="1040" x="350" y="-5350"><feFlood flood-opacity="0" result="BackgroundImageFix"/><feColorMatrix in="SourceAlpha" type="matrix" values="0 0 0 0 0 0 0 0 0 0 0 0 0 0 0 0 0 0 255 0"/><feOffset dx="0" dy="2"/><feGaussianBlur stdDeviation="10"/><feColorMatrix type="matrix" values="0 0 0 0 1 0 0 0 0 1 0 0 0 0 1 0 0 0 1 0"/><feBlend in2="BackgroundImageFix" mode="normal" result="effect1_dropShadow"/><feBlend in="SourceGraphic" in2="effect1_dropShadow" mode="normal" result="shape"/></filter></svg>