<?xml version="1.0" encoding="UTF-8" standalone="no"?>
<!-- Created with Inkscape (http://www.inkscape.org/) -->
<svg
   xmlns:svg="http://www.w3.org/2000/svg"
   xmlns="http://www.w3.org/2000/svg"
   xmlns:xlink="http://www.w3.org/1999/xlink"
   version="1.0"
   width="450"
   height="450"
   id="svg2">
  <defs
     id="defs5">
    <linearGradient
       id="linearGradient4355">
      <stop
         id="stop4357"
         style="stop-color:#315333;stop-opacity:1"
         offset="0" />
      <stop
         id="stop4359"
         style="stop-color:#345331;stop-opacity:0"
         offset="1" />
    </linearGradient>
    <linearGradient
       id="linearGradient4289">
      <stop
         id="stop4291"
         style="stop-color:#293b29;stop-opacity:1"
         offset="0" />
      <stop
         id="stop4293"
         style="stop-color:#1c441d;stop-opacity:1"
         offset="1" />
    </linearGradient>
    <linearGradient
       x1="248"
       y1="250"
       x2="252"
       y2="250"
       id="linearGradient5139"
       xlink:href="#linearGradient4289"
       gradientUnits="userSpaceOnUse" />
    <linearGradient
       x1="363.34561"
       y1="250"
       x2="351.95599"
       y2="250"
       id="linearGradient5141"
       xlink:href="#linearGradient4355"
       gradientUnits="userSpaceOnUse" />
    <linearGradient
       x1="100.63462"
       y1="190.78949"
       x2="117.01732"
       y2="190.78949"
       id="linearGradient5143"
       xlink:href="#linearGradient4289"
       gradientUnits="userSpaceOnUse" />
    <linearGradient
       x1="116.80539"
       y1="170.42239"
       x2="223.1498"
       y2="170.42239"
       id="linearGradient5145"
       xlink:href="#linearGradient4289"
       gradientUnits="userSpaceOnUse" />
    <linearGradient
       x1="146.37341"
       y1="268.4472"
       x2="232.69942"
       y2="268.4472"
       id="linearGradient5147"
       xlink:href="#linearGradient4289"
       gradientUnits="userSpaceOnUse" />
    <linearGradient
       x1="143.69707"
       y1="70.855171"
       x2="356.30292"
       y2="70.855171"
       id="linearGradient5149"
       xlink:href="#linearGradient4289"
       gradientUnits="userSpaceOnUse" />
  </defs>
  <g
     transform="translate(-25,-25)"
     id="g4701">
    <g
       transform="translate(-40.02024,87.591099)"
       id="g2507">
      <use
         transform="translate(-160,-4e-6)"
         id="use2418"
         x="0"
         y="0"
         width="250"
         height="225"
         xlink:href="#path2317" />
      <text
         x="130.34837"
         y="174.28391"
         id="text3220"
         xml:space="preserve"
         style="font-size:12px;font-style:normal;font-weight:normal;text-align:center;text-anchor:middle;fill:#000000;fill-opacity:1;stroke:none;stroke-width:1px;stroke-linecap:butt;stroke-linejoin:miter;stroke-opacity:1;font-family:Bitstream Vera Sans"><tspan
           x="130.34837"
           y="174.28391"
           id="tspan3222"
           style="font-size:32px;font-style:normal;font-variant:normal;font-weight:normal;font-stretch:normal;text-align:center;text-anchor:middle;font-family:Serif;-inkscape-font-specification:Serif">1</tspan></text>
    </g>
    <g
       transform="translate(-40.02024,-72.408905)"
       id="g2502">
      <path
         d="M 320.93429,162.4089 C 320.93429,179.48228 307.09361,193.32297 290.02025,193.32297 C 272.94688,193.32297 259.10619,179.48228 259.10619,162.4089 C 259.10619,145.33553 272.94688,131.49484 290.02025,131.49484 C 307.09361,131.49484 320.93429,145.33553 320.93429,162.4089 z"
         id="path2317"
         style="fill:#007fff;fill-opacity:0.3429952;fill-rule:evenodd;stroke:#000070;stroke-width:3.74999714;stroke-miterlimit:4;stroke-dasharray:none;stroke-dashoffset:0;stroke-opacity:1" />
      <text
         x="290.51242"
         y="174.28391"
         id="text3224"
         xml:space="preserve"
         style="font-size:12px;font-style:normal;font-weight:normal;text-align:center;text-anchor:middle;fill:#000000;fill-opacity:1;stroke:none;stroke-width:1px;stroke-linecap:butt;stroke-linejoin:miter;stroke-opacity:1;font-family:Bitstream Vera Sans"><tspan
           x="290.51242"
           y="174.28391"
           id="tspan3226"
           style="font-size:32px;font-style:normal;font-variant:normal;font-weight:normal;font-stretch:normal;text-align:center;text-anchor:middle;font-family:Serif;-inkscape-font-specification:Serif">2</tspan></text>
    </g>
    <g
       transform="translate(239.97976,-192.40891)"
       id="g2512">
      <use
         transform="translate(-160,160)"
         id="use2325"
         x="0"
         y="0"
         width="250"
         height="225"
         xlink:href="#path2317" />
      <text
         x="129.99681"
         y="334.05734"
         id="text3228"
         xml:space="preserve"
         style="font-size:12px;font-style:normal;font-weight:normal;text-align:center;text-anchor:middle;fill:#000000;fill-opacity:1;stroke:none;stroke-width:1px;stroke-linecap:butt;stroke-linejoin:miter;stroke-opacity:1;font-family:Bitstream Vera Sans"><tspan
           x="129.99681"
           y="334.05734"
           id="tspan3230"
           style="font-size:32px;font-style:normal;font-variant:normal;font-weight:normal;font-stretch:normal;text-align:center;text-anchor:middle;font-family:Serif;-inkscape-font-specification:Serif">3</tspan></text>
    </g>
    <g
       transform="translate(-40.020237,87.59109)"
       id="g2517">
      <use
         transform="translate(-3e-6,160)"
         id="use2327"
         x="0"
         y="0"
         width="250"
         height="225"
         xlink:href="#path2317" />
      <text
         x="290.34055"
         y="334.28391"
         id="text3232"
         xml:space="preserve"
         style="font-size:12px;font-style:normal;font-weight:normal;text-align:center;text-anchor:middle;fill:#000000;fill-opacity:1;stroke:none;stroke-width:1px;stroke-linecap:butt;stroke-linejoin:miter;stroke-opacity:1;font-family:Bitstream Vera Sans"><tspan
           x="290.34055"
           y="334.28391"
           id="tspan3234"
           style="font-size:32px;font-style:normal;font-variant:normal;font-weight:normal;font-stretch:normal;text-align:center;text-anchor:middle;font-family:Serif;-inkscape-font-specification:Serif">4</tspan></text>
    </g>
    <g
       transform="translate(-160.02024,-272.4089)"
       id="g2522">
      <use
         transform="translate(-3e-6,240)"
         id="use2463"
         x="0"
         y="0"
         width="250"
         height="225"
         xlink:href="#path2317" />
      <text
         x="290.34055"
         y="414.28391"
         id="text2465"
         xml:space="preserve"
         style="font-size:12px;font-style:normal;font-weight:normal;text-align:center;text-anchor:middle;fill:#000000;fill-opacity:1;stroke:none;stroke-width:1px;stroke-linecap:butt;stroke-linejoin:miter;stroke-opacity:1;font-family:Bitstream Vera Sans"><tspan
           x="290.34055"
           y="414.28391"
           id="tspan2467"
           style="font-size:32px;font-style:normal;font-variant:normal;font-weight:normal;font-stretch:normal;text-align:center;text-anchor:middle;font-family:Serif;-inkscape-font-specification:Serif">5</tspan></text>
    </g>
    <g
       transform="translate(-298.98785,254.12955)"
       id="g2497">
      <use
         transform="translate(378.96761,-46.538459)"
         id="use2469"
         x="0"
         y="0"
         width="250"
         height="225"
         xlink:href="#path2317" />
      <text
         x="668.96442"
         y="127.51888"
         id="text2473"
         xml:space="preserve"
         style="font-size:12px;font-style:normal;font-weight:normal;text-align:center;text-anchor:middle;fill:#000000;fill-opacity:1;stroke:none;stroke-width:1px;stroke-linecap:butt;stroke-linejoin:miter;stroke-opacity:1;font-family:Bitstream Vera Sans"><tspan
           x="668.96442"
           y="127.51888"
           id="tspan2475"
           style="font-size:32px;font-style:normal;font-variant:normal;font-weight:normal;font-stretch:normal;text-align:center;text-anchor:middle;font-family:Serif;-inkscape-font-specification:Serif">6</tspan></text>
    </g>
    <g
       transform="translate(-698.98785,254.12955)"
       id="g2492">
      <use
         transform="translate(538.96761,-46.538459)"
         id="use2471"
         x="0"
         y="0"
         width="250"
         height="225"
         xlink:href="#path2317" />
      <text
         x="829.30817"
         y="127.74545"
         id="text2477"
         xml:space="preserve"
         style="font-size:12px;font-style:normal;font-weight:normal;text-align:center;text-anchor:middle;fill:#000000;fill-opacity:1;stroke:none;stroke-width:1px;stroke-linecap:butt;stroke-linejoin:miter;stroke-opacity:1;font-family:Bitstream Vera Sans"><tspan
           x="829.30817"
           y="127.74545"
           id="tspan2479"
           style="font-size:32px;font-style:normal;font-variant:normal;font-weight:normal;font-stretch:normal;text-align:center;text-anchor:middle;font-family:Serif;-inkscape-font-specification:Serif">7</tspan></text>
    </g>
    <g
       transform="translate(-418.98785,54.129554)"
       id="g2487">
      <use
         transform="translate(538.96761,33.461541)"
         id="use2481"
         x="0"
         y="0"
         width="250"
         height="225"
         xlink:href="#path2317" />
      <text
         x="829.30817"
         y="207.74545"
         id="text2483"
         xml:space="preserve"
         style="font-size:12px;font-style:normal;font-weight:normal;text-align:center;text-anchor:middle;fill:#000000;fill-opacity:1;stroke:none;stroke-width:1px;stroke-linecap:butt;stroke-linejoin:miter;stroke-opacity:1;font-family:Bitstream Vera Sans"><tspan
           x="829.30817"
           y="207.74545"
           id="tspan2485"
           style="font-size:32px;font-style:normal;font-variant:normal;font-weight:normal;font-stretch:normal;text-align:center;text-anchor:middle;font-family:Serif;-inkscape-font-specification:Serif">8</tspan></text>
    </g>
    <path
       d="M 250,133.7902 L 250,366.20979"
       id="path3297"
       style="fill:none;fill-rule:evenodd;stroke:url(#linearGradient5139);stroke-width:4;stroke-linecap:round;stroke-linejoin:miter;stroke-miterlimit:4;stroke-dasharray:none;stroke-opacity:1" />
    <use
       transform="matrix(0,1,-1,0,500,-5e-6)"
       id="use3299"
       x="0"
       y="0"
       width="500"
       height="500"
       xlink:href="#path3297" />
    <path
       d="M 361.20675,254.75149 L 362.93129,250 L 361.20675,245.24851 L 369.77864,250 L 361.20675,254.75149 z"
       id="path3194"
       style="fill:none;fill-opacity:1;stroke:url(#linearGradient5141);stroke-width:4.99999952;stroke-linecap:round;stroke-linejoin:miter;stroke-miterlimit:4;stroke-dashoffset:0;stroke-opacity:1" />
    <g
       transform="matrix(1.0510162,0,0,1.0510162,-12.754043,-12.754043)"
       id="g3305">
      <use
         transform="matrix(0.7071068,0.7071068,-0.7071068,0.7071068,250,-103.55339)"
         id="use3301"
         x="0"
         y="0"
         width="500"
         height="500"
         xlink:href="#path3297" />
      <use
         transform="matrix(-0.7071068,0.7071068,-0.7071068,-0.7071068,603.5534,250)"
         id="use3303"
         x="0"
         y="0"
         width="500"
         height="500"
         xlink:href="#path3297" />
    </g>
    <g
       transform="translate(-0.82597,0)"
       id="g3319">
      <g
         transform="translate(0,-0.78949)"
         id="g3313">
        <path
           d="M 102.63462,211.53848 C 104.53537,193.99446 109.07692,180.85177 115.01732,170.0405"
           id="path3309"
           style="fill:none;fill-rule:evenodd;stroke:url(#linearGradient5143);stroke-width:4.00000048;stroke-linecap:round;stroke-linejoin:miter;stroke-miterlimit:4;stroke-dasharray:none;stroke-opacity:1" />
        <use
           transform="matrix(1,0,0,-1,0,501.57898)"
           id="use3311"
           x="0"
           y="0"
           width="500"
           height="500"
           xlink:href="#path3309" />
      </g>
      <use
         transform="matrix(-1,0,0,1,501.65194,0)"
         id="use3317"
         x="0"
         y="0"
         width="500"
         height="500"
         xlink:href="#g3313" />
    </g>
    <use
       transform="matrix(0,1,-1,0,500,0)"
       id="use3325"
       x="0"
       y="0"
       width="500"
       height="500"
       xlink:href="#g3319" />
    <g
       transform="translate(0,0.5776)"
       id="g3337">
      <g
         transform="translate(2.241e-2,0)"
         id="g3331">
        <path
           d="M 118.80539,221.5946 C 162.2312,196.79081 196.80689,163.1369 221.14979,119.2502"
           id="path3327"
           style="fill:none;fill-rule:evenodd;stroke:url(#linearGradient5145);stroke-width:4;stroke-linecap:round;stroke-linejoin:miter;stroke-miterlimit:4;stroke-dasharray:none;stroke-opacity:1" />
        <use
           transform="matrix(-1,0,0,1,499.95518,0)"
           id="use3329"
           x="0"
           y="0"
           width="500"
           height="500"
           xlink:href="#path3327" />
      </g>
      <use
         transform="matrix(1,0,0,-1,0,498.8448)"
         id="use3335"
         x="0"
         y="0"
         width="500"
         height="500"
         xlink:href="#g3331" />
    </g>
    <g
       transform="translate(0,2.244e-2)"
       id="g3353">
      <g
         transform="translate(0.48788,0)"
         id="g3347">
        <path
           d="M 148.37341,177.27236 C 194.65428,233.25612 213.57751,283.86158 230.69942,359.62203"
           id="path3343"
           style="fill:none;fill-rule:evenodd;stroke:url(#linearGradient5147);stroke-width:4;stroke-linecap:round;stroke-linejoin:miter;stroke-miterlimit:4;stroke-dasharray:none;stroke-opacity:1" />
        <use
           transform="matrix(-1,0,0,1,499.02424,0)"
           id="use3345"
           x="0"
           y="0"
           width="500"
           height="500"
           xlink:href="#path3343" />
      </g>
      <use
         transform="matrix(1,0,0,-1,0,499.95512)"
         id="use3351"
         x="0"
         y="0"
         width="500"
         height="500"
         xlink:href="#g3347" />
    </g>
    <use
       transform="matrix(0,1,-1,0,500,0)"
       id="use3359"
       x="0"
       y="0"
       width="500"
       height="500"
       xlink:href="#g3353" />
    <g
       transform="translate(5e-6,-2.661015)"
       id="g3367">
      <path
         d="M 145.69706,90.945412 C 189.71903,33.102457 313.36161,35.612136 354.30293,92.969703"
         id="path3363"
         style="fill:none;fill-rule:evenodd;stroke:url(#linearGradient5149);stroke-width:4;stroke-linecap:round;stroke-linejoin:miter;stroke-miterlimit:4;stroke-dasharray:none;stroke-opacity:1" />
      <use
         transform="matrix(1,0,0,-1,0,505.32203)"
         id="use3365"
         x="0"
         y="0"
         width="500"
         height="500"
         xlink:href="#path3363" />
    </g>
    <use
       transform="matrix(0,1,-1,0,500,0)"
       id="use3371"
       x="0"
       y="0"
       width="500"
       height="500"
       xlink:href="#g3367" />
    <use
       transform="matrix(0.1604769,0.9870396,-0.9870396,0.1604769,586.17566,-193.28412)"
       id="use3375"
       x="0"
       y="0"
       width="500"
       height="500"
       xlink:href="#path3194" />
    <use
       transform="matrix(0.1845638,-0.9828206,0.9828206,0.1845638,84.580427,607.14663)"
       id="use3377"
       x="0"
       y="0"
       width="500"
       height="500"
       xlink:href="#path3194" />
    <use
       transform="matrix(0.9274344,-0.373986,0.373986,0.9274344,-103.89776,292.13771)"
       id="use3379"
       x="0"
       y="0"
       width="500"
       height="500"
       xlink:href="#path3194" />
    <use
       transform="matrix(-0.9105913,-0.4133079,0.4133079,-0.9105913,400.499,766.33376)"
       id="use3381"
       x="0"
       y="0"
       width="500"
       height="500"
       xlink:href="#path3194" />
    <use
       transform="matrix(0.4349539,0.9004528,-0.9004528,0.4349539,179.93874,-108.43816)"
       id="use3383"
       x="0"
       y="0"
       width="500"
       height="500"
       xlink:href="#path3194" />
    <use
       transform="matrix(0.4473582,-0.8943549,0.8943549,0.4473582,-273.84236,386.38765)"
       id="use3385"
       x="0"
       y="0"
       width="500"
       height="500"
       xlink:href="#path3194" />
    <use
       transform="matrix(-0.8891028,0.4577076,-0.4577076,-0.8891028,611.2915,167.99646)"
       id="use3387"
       x="0"
       y="0"
       width="500"
       height="500"
       xlink:href="#path3194" />
    <use
       transform="matrix(0.8413387,0.5405083,-0.5405083,0.8413387,156.03993,-294.18242)"
       id="use3391"
       x="0"
       y="0"
       width="500"
       height="500"
       xlink:href="#path3194" />
    <use
       transform="matrix(-0.5961269,0.8028903,-0.8028903,-0.5961269,565.04707,-56.018595)"
       id="use3393"
       x="0"
       y="0"
       width="500"
       height="500"
       xlink:href="#path3194" />
    <use
       transform="matrix(0.7760883,0.6306243,-0.6306243,0.7760883,-37.349571,-71.976503)"
       id="use3395"
       x="0"
       y="0"
       width="500"
       height="500"
       xlink:href="#path3194" />
    <use
       transform="matrix(-0.5721453,-0.8201524,0.8201524,-0.5721453,151.05898,854.86448)"
       id="use3397"
       x="0"
       y="0"
       width="500"
       height="500"
       xlink:href="#path3194" />
    <use
       transform="matrix(-0.7360828,0.6768916,-0.6768916,-0.7360828,849.81946,289.68347)"
       id="use3399"
       x="0"
       y="0"
       width="500"
       height="500"
       xlink:href="#path3194" />
    <use
       transform="matrix(0,1,-1,0,500,0.8077655)"
       id="use3403"
       x="0"
       y="0"
       width="500"
       height="500"
       xlink:href="#path3194" />
    <use
       transform="matrix(0.7071068,0.7071068,-0.7071068,0.7071068,253.24976,-100.10348)"
       id="use3405"
       x="0"
       y="0"
       width="500"
       height="500"
       xlink:href="#path3194" />
    <use
       transform="matrix(-0.7071068,0.7071068,-0.7071068,-0.7071068,599.7841,255.03448)"
       id="use3407"
       x="0"
       y="0"
       width="500"
       height="500"
       xlink:href="#path3194" />
    <use
       transform="matrix(0.8197719,0.5726903,-0.5726903,0.8197719,221.00558,-194.27301)"
       id="use3409"
       x="0"
       y="0"
       width="500"
       height="500"
       xlink:href="#path3194" />
    <use
       transform="matrix(0.8415047,-0.5402498,0.5402498,0.8415047,-64.887142,267.86855)"
       id="use3411"
       x="0"
       y="0"
       width="500"
       height="500"
       xlink:href="#path3194" />
    <use
       transform="matrix(0.9032478,-0.4291194,0.4291194,0.9032478,-75.448714,198.48119)"
       id="use3413"
       x="0"
       y="0"
       width="500"
       height="500"
       xlink:href="#path3194" />
    <use
       transform="matrix(0.9761748,0.2169858,-0.2169858,0.9761748,55.900669,-92.139164)"
       id="use3415"
       x="0"
       y="0"
       width="500"
       height="500"
       xlink:href="#path3194" />
    <use
       transform="matrix(0.5662048,0.8242646,-0.8242646,0.5662048,218.75459,-65.744457)"
       id="use3417"
       x="0"
       y="0"
       width="500"
       height="500"
       xlink:href="#path3194" />
    <use
       transform="matrix(0.7684526,-0.6399068,0.6399068,0.7684526,-113.45742,187.22598)"
       id="use3419"
       x="0"
       y="0"
       width="500"
       height="500"
       xlink:href="#path3194" />
    <use
       transform="matrix(0.5211439,-0.8534689,0.8534689,0.5211439,-183.77961,304.41987)"
       id="use3421"
       x="0"
       y="0"
       width="500"
       height="500"
       xlink:href="#path3194" />
    <use
       transform="matrix(-0.2117789,0.9773176,-0.9773176,-0.2117789,590.86805,53.672638)"
       id="use3423"
       x="0"
       y="0"
       width="500"
       height="500"
       xlink:href="#path3194" />
    <use
       transform="matrix(0.4633762,0.8861617,-0.8861617,0.4633762,405.28214,-113.80088)"
       id="use3425"
       x="0"
       y="0"
       width="500"
       height="500"
       xlink:href="#path3194" />
    <use
       transform="matrix(0.8117259,0.5840386,-0.5840386,0.8117259,174.86146,-62.767264)"
       id="use3427"
       x="0"
       y="0"
       width="500"
       height="500"
       xlink:href="#path3194" />
    <use
       transform="matrix(-0.5443497,-0.8388584,0.8388584,-0.5443497,135.75424,616.30424)"
       id="use3429"
       x="0"
       y="0"
       width="500"
       height="500"
       xlink:href="#path3194" />
    <use
       transform="matrix(-0.5721368,0.8201583,-0.8201583,-0.5721368,560.81845,169.61354)"
       id="use3431"
       x="0"
       y="0"
       width="500"
       height="500"
       xlink:href="#path3194" />
  </g>
</svg>
