<svg height="243" viewBox="0 0 200 243" width="200" xmlns="http://www.w3.org/2000/svg"><g transform="translate(-4620 4057)"><path d="m170.69 3.77362c5.716 2.41729 10.848 5.87693 15.254 10.28278 4.405 4.4059 7.865 9.5377 10.282 15.2531 2.504 5.9201 3.774 12.2058 3.774 18.6823v70.4402c0 4.203-3.42 7.63-7.623 7.64l-26.165.059-.093 103.608h-7.723-124.4225l.1761-103.649-26.51958-.022c-4.20712-.004-7.63002-3.429-7.63002-7.636v-70.44c0-6.4765 1.26972-12.7621 3.77362-18.6822 2.41753-5.7155 5.87717-10.8475 10.28298-15.2534 4.4059-4.40561 9.5377-7.86549 15.2532-10.28278 5.9201-2.50414 12.2057-3.77362 18.6822-3.77362h15.741 72.779 15.496c6.477 0 12.762 1.26948 18.682 3.77362z" fill="#f2f2f2" transform="translate(4620 -4044.09)"/><g fill="#142663"><path d="m170.69 3.77362c5.716 2.41729 10.848 5.87693 15.254 10.28278 4.405 4.4059 7.865 9.5377 10.282 15.2531 2.504 5.9201 3.774 12.2058 3.774 18.6823v70.4402c0 4.203-3.42 7.63-7.623 7.64l-26.165.059-.093 103.608h-7.723-124.4225l.1761-103.649-26.51958-.022c-4.20712-.004-7.63002-3.429-7.63002-7.636v-70.44c0-6.4765 1.26972-12.7621 3.77362-18.6822 2.41753-5.7155 5.87717-10.8475 10.28298-15.2534 4.4059-4.40561 9.5377-7.86549 15.2532-10.28278 5.9201-2.50414 12.2057-3.77362 18.6822-3.77362h15.741c-.6766 1.42194-1.3623 3.12492-2.0329 5.24875h-13.7083c-23.6066 0-42.74328 19.13645-42.74328 42.74305v70.4392c0 1.318 1.06836 2.387 2.3858 2.388l26.92708.023v-54.3753h5.0102l-.3493 155.6383c-.0024 1.317 1.0638 2.386 2.3815 2.386h116.7922c1.317 0 2.388-1.069 2.39-2.386l.203-155.6383h5.13v54.4153l26.247-.06c1.317-.003 2.385-1.073 2.385-2.391v-70.4392c0-23.6063-19.136-42.74305-42.743-42.74305h-13.517c-.045-.14052-.09-.28033-.136-.41942-.492-1.49828-1.069-3.16261-1.843-4.82933h15.496c6.477 0 12.762 1.26948 18.682 3.77362z" transform="translate(4620 -4045.28)"/><path d="m34.3586 62.3144c0 1.9764-1.6026 3.5787-3.5787 3.5787-1.9764 0-3.5787-1.6023-3.5785-3.5787v-28.6133c0-14.6362-12.2026-26.54371-27.20116701-26.54371l-.00023299-7.15739c18.9454 0 34.3586 15.1183 34.3586 33.7011z" transform="translate(4772.32 -4030.83)"/><path d="m0 33.7011c0-18.5828 15.4132-33.7011 34.3583-33.7011v7.15739c-14.9985 0-27.20091 11.90751-27.20091 26.54371v28.6133c0 1.9764-1.6023 3.5787-3.5787 3.5787-1.97639 0-3.57869-1.6023-3.57869-3.5787z" transform="translate(4633.33 -4030.83)"/><path d="m0 0h69.3763l-34.6881 26.4401z" transform="translate(4684.99 -4056.15)"/></g><path d="m34.6881 0 16.3104 10.6811-22.2831 39.2224-28.7154-23.4634z" fill="#687396" transform="translate(4719.34 -4056.15)"/><path d="m16.3103 0-16.3103 10.6811 22.2831 39.2224 28.7154-23.4634z" fill="#687396" transform="translate(4668.71 -4056.12)"/><path d="m0 15.0586 7.58085 5.7783h21.59395l7.5808-5.7783-18.3778-15.0586z" fill="#a30103" transform="translate(4701.18 -4029.69)"/><path d="m8.27002 0-8.27002 90.8282 19.067 20.5418 19.067-20.5418-8.27-90.8282z" fill="#cc0003" transform="translate(4700.39 -4009.11)"/></g></svg>