<svg height="1500" viewBox="0 0 1500 1500" width="1500" xmlns="http://www.w3.org/2000/svg" xmlns:xlink="http://www.w3.org/1999/xlink"><g mask="url(#k)" transform="translate(642 8507)"><g><g><use fill="#142663" transform="translate(-305.038 -7879.41)" xlink:href="#a"/></g><g><use fill="#4f4f4f" transform="translate(-361.5 -8409.74)" xlink:href="#b"/></g><g><g><g><g><use fill="#f2f2f2" transform="translate(-630 -7828.96)" xlink:href="#c"/></g><g><use fill="#142663" transform="translate(-630 -7834.92)" xlink:href="#d"/></g><g><use fill="#142663" transform="translate(131.579 -7762.65)" xlink:href="#e"/></g><g><use fill="#142663" transform="translate(-563.373 -7762.65)" xlink:href="#f"/></g></g></g><g><g><g><use fill="#687396" transform="translate(-133.291 -7889.26)" xlink:href="#g"/></g><g><use fill="#687396" transform="translate(-386.473 -7889.1)" xlink:href="#h"/></g><g><use fill="#a30103" transform="translate(-224.1 -7756.94)" xlink:href="#i"/></g><g><use fill="#cc0003" transform="translate(-228.048 -7654.03)" xlink:href="#j"/></g></g></g></g></g><g><g><use fill="#142663" transform="translate(191.962 -7727.41)" xlink:href="#a"/></g><g><use fill="#4f4f4f" transform="translate(135.5 -8257.74)" xlink:href="#b"/></g><g><g><g><g><use fill="#f2f2f2" transform="translate(-133 -7676.96)" xlink:href="#c"/></g><g><use fill="#142663" transform="translate(-133 -7682.92)" xlink:href="#d"/></g><g><use fill="#142663" transform="translate(628.579 -7610.65)" xlink:href="#e"/></g><g><use fill="#142663" transform="translate(-66.373 -7610.65)" xlink:href="#f"/></g></g></g><g><g><g><use fill="#687396" transform="translate(363.709 -7737.26)" xlink:href="#g"/></g><g><use fill="#687396" transform="translate(110.527 -7737.1)" xlink:href="#h"/></g><g><use fill="#a30103" transform="translate(272.9 -7604.94)" xlink:href="#i"/></g><g><use fill="#cc0003" transform="translate(268.952 -7502.03)" xlink:href="#j"/></g></g></g></g></g></g><defs><path id="a" d="m0 0h346.881l-173.44 132.2z"/><path id="b" d="m65.3468 542.775c-11.6633 3.755 164.4932 125.988 164.4932 125.988l176.719-115.987c-35.232-11.151-43.742-60.964-19.013-111.295 7.446-15.155 13.606-32.698 13.689-38.986.082-6.288 9.133-21.932 20.112-34.765 29.197-34.127 46.558-107.523 27.947-118.146-3.837-2.19-6.848-32.208-6.854-68.322-.008-48.835-2.906-69.659-11.978-86.0901-18.045-32.6825-55.21-56.9184-96.533-62.9513-20.77-3.0322-42.163-10.8596-51.266-18.7576-12.054-10.45886-24.116-13.5327852-52.823-13.46180449-73.468.18166649-152.4151 39.57790449-193.2958 96.45830449-28.95253 40.2835-37.8151 83.9765-36.40138 179.4595.731779 49.422 3.12157 60.766 16.25728 77.175 8.4697 10.579 15.3993 22.084 15.3993 25.566s5.8092 11.419 12.9092 17.638c7.1 6.22 15.1857 24.108 17.9683 39.752s9.2929 34.055 14.4675 40.912c5.1747 6.857 9.4085 22.934 9.4085 35.727 0 20.324-2.6754 24.12-21.2061 30.086z"/><path id="c" d="m853.452 18.8681c28.577 12.0864 54.237 29.3847 76.266 51.4139 22.028 22.0293 39.326 47.689 51.414 76.266 12.519 29.6 18.868 61.028 18.868 93.411v352.201c0 21.015-17.098 38.149-38.113 38.198l-130.826.296-.467 518.046h-38.614-622.112l.88-518.249-132.5979-.11c-21.0356-.019-38.1501-17.146-38.1501-38.182v-352.199c0-32.382 6.34861-63.811 18.8681-93.411 12.0876-28.577 29.3859-54.2377 51.4151-76.267 22.0293-22.028 47.6888-39.3275 76.2658-51.4139 29.6-12.52068 61.029-18.8681 93.411-18.8681l88.249 78.697h363.895l67.936-78.697c32.384 0 63.812 6.34742 93.412 18.8681z"/><path id="d" d="m853.452 18.8681c28.577 12.0864 54.237 29.3847 76.266 51.4139 22.028 22.0293 39.326 47.689 51.414 76.266 12.519 29.6 18.868 61.028 18.868 93.411v352.201c0 21.015-17.098 38.149-38.113 38.198l-130.827.296-.466 518.046h-38.614-622.112l.88-518.249-132.5979-.11c-21.0356-.019-38.1501-17.146-38.1501-38.182v-352.199c0-32.382 6.34861-63.811 18.8681-93.411 12.0876-28.577 29.3859-54.2377 51.4151-76.267 22.0293-22.028 47.6888-39.3275 76.2658-51.4139 29.6-12.52069 61.029-18.8681 93.411-18.8681h78.705c-3.383 7.10968-6.811 15.6246-10.165 26.2438h-68.541c-118.033 0-213.7164 95.6822-213.7164 213.7152v352.198c0 6.588 5.3418 11.932 11.929 11.939l134.6354.112v-271.875h25.051l-1.747 778.187c-.012 6.59 5.32 11.93 11.908 11.93h583.96c6.588 0 11.939-5.34 11.951-11.93l1.017-778.187h25.647v272.076l131.234-.299c6.588-.013 11.929-5.365 11.929-11.954v-352.197c0-118.032-95.684-213.7152-213.716-213.7152h-67.588c-.223-.7026-.45-1.4017-.677-2.0971-2.463-7.4914-5.346-15.81311-9.216-24.1467h77.48c32.384 0 63.812 6.34741 93.412 18.8681z"/><path id="e" d="m171.793 311.572c0 9.882-8.013 17.894-17.894 17.894s-17.893-8.012-17.892-17.894v-143.067c0-73.1805-61.013-132.718-136.00583506-132.718l-.00116494-35.787c94.7269 0 171.793 75.5916 171.793 168.505z"/><path id="f" d="m0 168.505c0-92.9134 77.066-168.505 171.792-168.505v35.787c-74.993 0-136.005 59.5375-136.005 132.718v143.067c0 9.882-8.0115 17.894-17.8935 17.894s-17.8935-8.012-17.8935-17.894z"/><path id="g" d="m173.441 0 81.551 53.4055-111.415 196.1115-143.577-117.317z"/><path id="h" d="m81.5516 0-81.5516 53.4055 111.416 196.1115 143.576-117.317z"/><path id="i" d="m0 75.293 37.9043 28.891h107.9697l37.904-28.891-91.8889-75.293z"/><path id="j" d="m41.3501 0-41.3501 454.141 95.335 102.708 95.335-102.708-41.35-454.141z"/><mask id="k"><path d="m-642-8507h1500v1500h-1500z" fill="#fff"/></mask></defs></svg>