<svg height="1500" viewBox="0 0 1500 1500" width="1500" xmlns="http://www.w3.org/2000/svg" xmlns:xlink="http://www.w3.org/1999/xlink"><g mask="url(#a)" transform="translate(2557 8507)"><g><g><path d="m0 0h485.634l-242.817 185.081z" fill="#142663" transform="translate(-2052.05 -7637.8)"/></g><g><path d="m91.4855 759.885c-16.3287 5.257 230.2895 176.384 230.2895 176.384l247.407-162.383c-49.324-15.61-61.238-85.349-26.617-155.813 10.424-21.216 19.048-45.777 19.164-54.58.115-8.803 12.786-30.705 28.156-48.671 40.876-47.778 65.183-150.532 39.127-165.404-5.372-3.067-9.588-45.092-9.597-95.652-.011-68.368-4.067-97.522-16.768-120.525-25.263-45.7558-77.294-79.686-135.146-88.1321-29.078-4.2452-59.028-15.2035-71.772-26.2607-16.877-14.64241-33.764-18.9458993-73.954-18.84652629-102.854.25433329-213.38 55.40902629-270.6131 135.04132629-40.5336 56.398-52.94117 117.567-50.961952 251.243 1.024492 69.191 4.370202 85.073 22.760152 108.045 11.8576 14.812 21.5591 30.918 21.5591 35.793s8.1329 15.987 18.0728 24.694c9.9401 8.707 21.2601 33.75 25.1557 55.652 3.8955 21.902 13.0103 47.677 20.2543 57.277 7.245 9.6 13.172 32.108 13.172 50.017 0 28.455-3.746 33.769-29.6885 42.121z" fill="#4f4f4f" transform="translate(-2131.1 -8380.27)"/></g><g><g><g><g><path d="m1194.83 26.4153c40.01 16.921 75.93 41.1386 106.78 71.9795 30.83 30.8412 55.05 66.7642 71.97 106.7722 17.53 41.441 26.42 85.44 26.42 130.775v493.082c0 29.421-23.94 53.408-53.36 53.477l-183.16.414-.65 725.265h-54.06-870.955l1.232-725.549-185.6369-.154c-29.4498-.026-53.4101-24.003-53.4101-53.455v-493.078c0-45.335 8.88805-89.335 26.4153-130.776 16.9227-40.008 41.1402-75.932 71.9812-106.7732 30.8405-30.8393 66.7635-55.0585 106.7715-71.9795 41.441-17.52892 85.441-26.4153 130.776-26.4153l123.549 110.176h509.453l95.114-110.176c45.33 0 89.33 8.88638 130.77 26.4153z" fill="#f2f2f2" transform="translate(-2507 -7567.18)"/></g><g><path d="m1194.83 26.4153c40.01 16.921 75.93 41.1386 106.78 71.9795 30.83 30.8412 55.05 66.7642 71.97 106.7722 17.53 41.441 26.42 85.44 26.42 130.775v493.082c0 29.421-23.94 53.408-53.36 53.477l-183.16.414-.65 725.265h-54.06-870.955l1.232-725.549-185.6369-.154c-29.4498-.026-53.4101-24.003-53.4101-53.455v-493.078c0-45.335 8.88805-89.335 26.4153-130.776 16.9227-40.008 41.1402-75.932 71.9812-106.7732 30.8405-30.8393 66.7635-55.0585 106.7715-71.9795 41.441-17.52892 85.441-26.4153 130.776-26.4153h110.187c-4.736 9.95355-9.536 21.8744-14.23 36.7413h-95.959c-165.245 0-299.2024 133.9557-299.2024 299.2007v493.078c0 9.222 7.4785 16.704 16.7006 16.714l188.4898.157v-380.624h35.071l-2.445 1089.463c-.017 9.22 7.447 16.7 16.67 16.7h817.544c9.22 0 16.72-7.48 16.73-16.7l1.43-1089.463h35.9v380.905l183.73-.418c9.22-.018 16.7-7.512 16.7-16.735v-493.077c0-165.244-133.96-299.2007-299.2-299.2007h-94.626c-.312-.9837-.63-1.9623-.947-2.936-3.449-10.4879-7.485-22.1383-12.903-33.8053h108.476c45.33 0 89.33 8.88638 130.77 26.4153z" fill="#142663" transform="translate(-2507 -7575.53)"/></g><g><path d="m240.51 436.201c0 13.835-11.218 25.051-25.051 25.051-13.834 0-25.051-11.216-25.049-25.051v-200.294c0-102.453-85.418-185.8052-190.40836908-185.8052l-.00163092-50.1018c132.618 0 240.51 105.828 240.51 235.907z" fill="#142663" transform="translate(-1440.79 -7474.34)"/></g><g><path d="m0 235.907c0-130.079 107.892-235.907 240.508-235.907v50.1018c-104.989 0-190.4063 83.3522-190.4063 185.8052v200.294c0 13.835-11.2161 25.051-25.0508 25.051-13.8348 0-25.0509-11.216-25.0509-25.051z" fill="#142663" transform="translate(-2413.72 -7474.34)"/></g></g></g><g><g><g><path d="m242.817 0 114.172 74.7677-155.982 274.5563-201.007-164.243z" fill="#687396" transform="translate(-1811.61 -7651.6)"/></g><g><path d="m114.172 0-114.172 74.7677 155.982 274.5563 201.007-164.243z" fill="#687396" transform="translate(-2166.06 -7651.37)"/></g><g><path d="m0 105.41 53.066 40.448h151.158l53.066-40.448-128.645-105.41z" fill="#a30103" transform="translate(-1938.74 -7466.35)"/></g><g><path d="m57.8902 0-57.8902 635.797 133.469 143.791 133.469-143.791-57.89-635.797z" fill="#cc0003" transform="translate(-1944.27 -7322.27)"/></g></g></g></g></g></g><mask id="a"><path d="m-2557-8507h1500v1500h-1500z" fill="#fff"/></mask></svg>