<svg height="1500" viewBox="0 0 1500 1500" width="1500" xmlns="http://www.w3.org/2000/svg" xmlns:xlink="http://www.w3.org/1999/xlink"><g mask="url(#a)" transform="translate(4559 8515)"><path d="m-4559-8515h1500v1500h-1500z" fill="#fff"/><g><path d="m1062.2 75.8621h-151.855v-37.9121c0-20.9474-16.853-37.95-37.801-37.95h-644.827c-20.948 0-38.062 17.0026-38.062 37.95v37.9121h-151.5936c-20.9474 0-38.0614 17.0026-38.0614 37.9499v208.621c0 101.574 98.0399 184.494 199.494 189.186 27.097 114.893 103.954 213.061 217.747 258.31v178.347h-94.697c-18.076 0-33.652 12.761-37.191 30.494l-37.931 189.66c-2.231 11.14.647 22.69 7.854 31.48 7.204 8.79 17.974 13.88 29.337 13.88h531.035c11.362 0 22.132-5.09 29.337-13.88 7.204-8.79 10.085-20.34 7.854-31.48l-37.931-189.66c-3.539-17.733-19.115-30.494-37.191-30.494h-94.958v-177.162c113.793-44.751 194.901-142.445 219.59-259.6 100.721-5.737 197.651-88.208 197.651-189.081v-208.621c0-20.9473-16.85-37.9499-37.8-37.9499zm-872.481 360.3639c-62.75 0-113.8569-51.043-113.8569-113.793v-170.709h113.7929v276.055c0 2.843.292 5.645.356 8.478-.109 0-.18-.031-.292-.031zm579.662 701.704h-438.504l22.764-113.79h101.662 189.655 101.662zm65.102-701.704c0 125.599-80.696 234.81-200.805 271.75-15.919 4.898-26.781 19.605-26.781 36.255v204.045h-113.794v-204.787c0-16.455-10.613-31.033-26.272-36.099-118.534-38.291-201.314-153.27-201.314-279.611v-351.9169h568.966zm189.657-113.793c0 62.75-56.899 113.793-113.795 113.793v-284.502h113.795z" fill="#142663" transform="translate(-4359 -8353.9)"/></g><g><path d="m239.625 284.483c-1.517 0-3.02-.358-4.39-1.072l-83.513-43.125-83.512 43.125c-3.1862 1.657-7.067 1.38-9.9877-.713-2.9231-2.079-4.3739-5.605-3.748-9.111l15.931-91.352-67.55045-64.675c-2.576939-2.468-3.501495-6.187-2.394383-9.563 1.104743-3.376 4.077553-5.861 7.659673-6.349l93.35286-13.3327 41.731-83.11876c1.601-3.18146 4.903-5.19653363 8.518-5.19653363 3.582 0 6.901 2.01270363 8.485 5.19653363l41.748 83.11876 93.367 13.3327c3.568.488 6.538 2.971 7.662 6.349 1.124 3.376.18 7.095-2.411 9.563l-67.534 64.675 15.929 91.352c.612 3.506-.842 7.032-3.762 9.111-1.653 1.183-3.618 1.785-5.581 1.785z" fill="#cc0003" transform="translate(-3960.13 -8145.25)"/></g><g><path d="m124.426 0h-101.6626l-22.76338264 113.793h438.50398264l-22.761-113.793h-101.662z" fill="#fff" transform="translate(-4028.12 -7329.76)"/></g></g><mask id="a"><path d="m-4559-8515h1500v1500h-1500z" fill="#fff"/></mask></svg>