<?xml version="1.0" encoding="UTF-8"?>
<svg width="400px" height="400px" viewBox="0 0 400 400" version="1.1" xmlns="http://www.w3.org/2000/svg" xmlns:xlink="http://www.w3.org/1999/xlink">
  <!-- Generator: Sketch 42 (36781) - http://www.bohemiancoding.com/sketch -->
  <title>Artboard</title>
  <desc>Created with Sketch.</desc>
  <defs></defs>
  <g id="Page-1" stroke="none" stroke-width="1" fill="none" fill-rule="evenodd">
    <g id="Artboard">
      <g id="Group-2" transform="translate(64.000000, 5.000000)">
        <polygon id="Rectangle-4" fill="#9B9B9B" points="0.271484375 195 31 204.430739 31 258 0.271484375 253.015928 7.1640625 226.5"></polygon>
        <polygon id="Rectangle-4" fill="#9B9B9B" transform="translate(264.635742, 226.500000) scale(-1, 1) translate(-264.635742, -226.500000) " points="249.271484 195 280 204.430739 280 258 249.271484 253.015928 256.164062 226.5"></polygon>
        <g id="xp-shield" transform="translate(16.000000, 63.000000)">
          <g id="Page-1">
            <g id="Group">
              <path d="M120.958031,322.697132 C193.266908,280.958951 241.916062,202.947146 241.916062,113.597238 C241.916062,81.2767121 235.550396,50.4397597 224.001856,22.2666235 C193.104606,7.9757495 158.676268,0 122.381067,0 C84.7012889,0 49.0335246,8.59586826 17.2397967,23.9295989 C6.11808926,51.6515569 0,81.9114607 0,113.597238 C0,202.947146 48.6491545,280.958951 120.958031,322.697132 Z" id="Oval-1-Copy-5" fill="#122C60"></path>
              <path d="M122,300.521811 C184.802355,264.270991 227.055556,196.515478 227.055556,118.912493 C227.055556,90.8411799 221.52679,64.0583931 211.496549,39.5892078 C184.661391,27.1771696 154.759382,20.25 123.235948,20.25 C90.5099686,20.25 59.5314816,27.7157607 31.9177075,41.0335502 C22.2581823,65.1108741 16.9444444,91.3924775 16.9444444,118.912493 C16.9444444,196.515478 59.197645,264.270991 122,300.521811 Z" id="Oval-1-Copy-5" fill="#FFFFFF"></path>
            </g>
          </g>
        </g>
        <path d="M45,35.7087794 C45,35.7087794 75.1861809,69.3718157 93.0973396,65.3626755 C125.691421,58.0669865 136.512016,1.13686838e-13 136.512016,1.13686838e-13 C136.512016,1.13686838e-13 145.46236,54.7851918 173.481701,65.3626755 C201.501041,75.9401591 228.024032,35.7087794 228.024032,35.7087794 L198.137957,108.362237 L73.96917,108.362237 L45,35.7087794 Z" id="Rectangle" fill="#CC0003"></path>
        <g id="case-portfolio-suitcase-bag-job-briefcase-business-icon" transform="translate(76.000000, 95.000000)" fill="#142663">
          <g id="Layer_1">
            <path d="M124,25.6800899 L124,47.4634607 C123.18656,50.9493034 121.38422,54.1507416 118.72194,56.7475056 C114.97714,60.3950562 109.98614,62.4053933 104.67584,62.4053933 L71.2876,62.4053933 L71.2876,55.7734831 C71.2876,52.9709663 69.0277,50.6781124 66.26622,50.6781124 L57.73316,50.6781124 C54.97292,50.6781124 52.71364,52.9715955 52.71364,55.7734831 L52.71364,62.4053933 L19.32354,62.4053933 C14.01324,62.4053933 9.02348,60.3950562 5.27744,56.7475056 C2.61268,54.1545169 0.81344,50.9505618 0,47.4659775 L0,25.6800899 C0,20.9842697 3.7882,17.1397753 8.41588,17.1397753 L115.58536,17.1397753 C120.21242,17.1397753 124,20.9842697 124,25.6800899 Z M66.26684,74.1320449 C66.7089,74.1320449 67.0778,73.7570337 67.0778,73.3090337 L67.0778,66.6758652 L67.0778,62.4053933 L67.0778,55.7734831 C67.0778,55.3254831 66.7089,54.9479551 66.26684,54.9479551 L57.73316,54.9479551 C57.29296,54.9479551 56.91972,55.3254831 56.91972,55.7734831 L56.91972,62.4053933 L56.91972,66.6758652 L56.91972,73.3090337 C56.91972,73.7570337 57.29296,74.1320449 57.73316,74.1320449 L66.26684,74.1320449 L66.26684,74.1320449 Z M121.6378,59.8275056 C117.10188,64.2426966 111.08168,66.6764944 104.67584,66.6764944 L71.2876,66.6764944 L71.2876,73.3096629 C71.2876,76.1084045 69.0277,78.4031461 66.26622,78.4031461 L57.73316,78.4031461 C54.97292,78.4031461 52.71364,76.1090337 52.71364,73.3096629 L52.71364,66.6764944 L19.32354,66.6764944 C12.91894,66.6764944 6.8975,64.2426966 2.3622,59.8275056 C1.5004,58.9875056 0.71176,58.0959101 0,57.1602697 L0,103.400539 C0,108.100135 3.7882,111.941483 8.41588,111.941483 L115.58536,111.941483 C120.21242,111.941483 124,108.100135 124,103.400539 L124,57.1602697 C123.287,58.0959101 122.50146,58.9875056 121.6378,59.8275056 Z" id="Shape"></path>
          </g>
        </g>
        <path d="M25.3574219,271.623047 L247.785156,271.623047 L232.341797,308.191406 C232.341797,308.191406 168.249023,316.597656 136.571289,316.597656 C104.893555,316.597656 43.2734375,308.191406 43.2734375,308.191406 L25.3574219,271.623047 Z" id="Rectangle-3" fill="#4A4A4A"></path>
        <path d="M12,205 C12,205 77.7011719,223.834267 140,223.834267 C202.298828,223.834267 268,205 268,205 L268,267.86833 C268,267.86833 220.689453,284.966797 140,284.966797 C59.3105469,284.966797 12,267.86833 12,267.86833 L12,205 Z" id="Rectangle-2" fill="#D8D8D8"></path>
        <text id="OFFICE" font-family="LucidaGrande-Bold, Lucida Grande" font-size="56" font-weight="bold" fill="#122D5F">
          <tspan x="35.2460938" y="263">OFFICE</tspan>
        </text>
        <text id="LEAGUE" font-family="LucidaGrande-Bold, Lucida Grande" font-size="30" font-weight="bold" fill="#FFFFFF">
          <tspan x="76.4853516" y="308">LEAGUE</tspan>
        </text>
      </g>
    </g>
  </g>
</svg>