<?xml version="1.0" standalone="no"?>
<!DOCTYPE svg PUBLIC "-//W3C//DTD SVG 20010904//EN"
 "http://www.w3.org/TR/2001/REC-SVG-20010904/DTD/svg10.dtd">
<svg version="1.0" xmlns="http://www.w3.org/2000/svg"
 width="16.000000pt" height="16.000000pt" viewBox="0 0 16.000000 16.000000"
 preserveAspectRatio="xMidYMid meet">
<metadata>
Created by potrace 1.11, written by Peter Selinger 2001-2013
</metadata>
<g transform="translate(0.000000,16.000000) scale(0.002286,-0.002286)"
fill="#000000" stroke="none">
<path d="M3490 6833 c-34 -156 -119 -393 -195 -543 -72 -144 -138 -236 -244
-340 -153 -150 -290 -206 -433 -175 -148 31 -363 174 -584 388 l-125 120 19
-49 c11 -27 72 -179 136 -339 64 -159 116 -294 116 -300 0 -5 -37 -23 -83 -39
-45 -16 -151 -58 -235 -94 -119 -51 -156 -71 -166 -91 -25 -48 -115 -320 -150
-453 -120 -452 -161 -854 -136 -1331 6 -131 15 -250 19 -265 7 -25 16 -29 149
-61 78 -19 144 -32 147 -29 3 3 -2 69 -10 147 -17 164 -20 492 -5 661 26 296
91 606 180 865 67 194 58 181 154 225 86 40 262 110 275 110 5 0 27 -50 51
-110 l43 -110 1089 2 1089 3 49 118 c26 65 51 121 54 125 9 8 150 -41 293
-103 l117 -50 44 -120 c71 -194 137 -440 172 -640 49 -287 64 -689 36 -968
-10 -93 -16 -171 -13 -173 5 -5 245 51 253 59 18 17 35 382 31 632 -9 468 -77
863 -222 1282 -79 230 -77 226 -126 250 -59 29 -231 98 -349 140 -55 19 -94
38 -92 45 2 6 61 153 133 326 71 173 129 317 129 320 0 3 -23 -26 -52 -64 -78
-103 -246 -265 -343 -329 -166 -111 -295 -148 -443 -126 -183 26 -313 122
-451 335 -105 162 -209 423 -266 671 -15 66 -31 124 -35 128 -4 4 -12 -18 -20
-50z"/>
<path d="M2532 4933 c-18 -9 -43 -30 -55 -47 -21 -29 -22 -42 -25 -255 -3
-221 -3 -224 22 -275 33 -68 99 -133 166 -165 l55 -26 336 -3 337 -3 4 75 c3
62 7 79 27 100 23 25 29 26 136 26 107 0 113 -1 136 -26 20 -21 24 -38 27
-100 l4 -75 337 3 336 3 55 26 c67 32 133 97 166 165 25 51 25 54 22 275 -3
213 -4 226 -25 255 -48 68 12 64 -1060 64 -871 0 -971 -2 -1001 -17z"/>
<path d="M3452 4123 l3 -168 80 0 80 0 3 168 2 167 -85 0 -85 0 2 -167z"/>
<path d="M2450 3825 c0 -410 0 -418 22 -456 14 -25 37 -46 63 -59 40 -20 62
-20 1000 -20 938 0 960 0 1000 20 26 13 49 34 63 59 22 38 22 46 22 456 l0
417 -47 -43 c-62 -54 -155 -98 -235 -109 -35 -5 -192 -10 -349 -10 l-287 0 -4
-76 c-3 -69 -6 -79 -31 -100 -26 -22 -37 -24 -132 -24 -95 0 -106 2 -132 24
-25 21 -28 31 -31 100 l-4 76 -287 0 c-157 0 -314 5 -349 10 -80 11 -173 55
-234 109 l-48 43 0 -417z"/>
<path d="M2050 3027 c-146 -33 -240 -139 -258 -291 -26 -210 62 -371 228 -421
82 -25 235 -18 308 14 79 35 146 114 173 203 30 97 24 229 -14 311 -34 74
-102 140 -174 167 -70 26 -190 34 -263 17z m191 -150 c19 -12 45 -43 59 -67
22 -39 25 -57 25 -140 0 -77 -4 -104 -22 -142 -49 -106 -185 -131 -264 -48
-80 84 -81 289 -1 373 35 37 56 46 118 46 37 1 60 -5 85 -22z"/>
<path d="M4613 3029 c-151 -29 -255 -136 -283 -289 -32 -174 46 -339 192 -406
59 -27 71 -29 188 -29 108 0 132 3 173 22 l47 22 0 70 c0 39 -2 71 -4 71 -2 0
-30 -12 -62 -27 -48 -23 -73 -28 -134 -28 -89 0 -129 19 -174 83 -27 38 -30
52 -34 135 -3 81 -1 97 20 136 13 25 40 59 61 75 37 29 44 31 125 31 74 0 96
-4 145 -27 l57 -27 0 73 c0 69 -1 73 -26 85 -78 35 -201 48 -291 30z"/>
<path d="M2660 2670 l0 -360 90 0 90 0 0 150 0 150 150 0 150 0 0 70 0 69
-147 3 -148 3 -3 62 -3 62 158 3 158 3 3 66 3 66 -167 6 c-92 4 -205 7 -251 7
l-83 0 0 -360z"/>
<path d="M5087 3023 c-4 -3 -7 -165 -7 -360 l0 -353 255 0 255 0 0 70 0 70
-160 0 -160 0 0 80 0 80 145 0 145 0 0 70 0 70 -145 0 -145 0 0 65 0 65 155 0
155 0 0 75 0 75 -243 0 c-134 0 -247 -3 -250 -7z"/>
<path d="M3330 2665 l0 -355 90 0 90 0 0 150 0 150 150 0 150 0 0 70 0 69
-147 3 -148 3 -3 62 -3 62 158 3 158 3 3 68 3 67 -251 0 -250 0 0 -355z"/>
<path d="M4000 2665 l0 -355 90 0 90 0 0 355 0 355 -90 0 -90 0 0 -355z"/>
<path d="M1639 2008 c85 -179 240 -488 244 -488 12 0 221 -31 222 -33 1 -1 43
-60 95 -132 321 -444 738 -833 1199 -1119 l118 -73 115 72 c463 287 884 681
1212 1133 48 67 91 122 95 122 33 0 247 33 249 38 1 4 58 138 126 297 68 160
122 291 120 293 -1 2 -56 -8 -121 -22 -521 -112 -1088 -166 -1743 -166 -687 0
-1262 58 -1827 184 -88 20 -162 36 -166 36 -3 0 25 -64 62 -142z m969 -255 l3
-153 84 0 85 0 0 -40 0 -40 -135 0 -135 0 0 196 0 195 48 -3 47 -3 3 -152z
m502 117 l0 -40 -85 0 -85 0 0 -35 0 -35 80 0 80 0 0 -40 0 -40 -80 0 -80 0 0
-40 0 -40 85 0 85 0 0 -40 0 -40 -135 0 -135 0 0 195 0 195 135 0 135 0 0 -40z
m372 -145 c37 -99 67 -186 68 -192 0 -9 -16 -13 -46 -13 -42 0 -46 2 -60 35
l-14 35 -75 0 -75 0 -14 -35 c-14 -33 -18 -35 -60 -35 -26 0 -46 5 -46 10 0
11 126 356 136 372 3 5 31 8 62 6 l57 -3 67 -180z m418 172 c31 -11 35 -16 38
-51 3 -36 2 -38 -20 -31 -113 35 -163 31 -202 -16 -20 -24 -26 -41 -26 -80 0
-90 43 -134 126 -127 37 3 39 5 39 38 0 31 -3 35 -27 38 -25 3 -28 8 -28 38
l0 34 75 0 76 0 -3 -97 -3 -96 -40 -14 c-22 -8 -70 -15 -107 -15 -134 -1 -212
71 -212 197 1 88 37 146 114 179 42 18 151 20 200 3z m238 -132 c3 -152 11
-175 61 -175 58 0 71 37 71 203 l0 118 48 -3 47 -3 0 -140 c0 -154 -9 -192
-53 -221 -66 -43 -186 -35 -237 16 l-30 30 -3 161 -3 160 48 -3 48 -3 3 -140z
m592 105 l0 -40 -85 0 -85 0 0 -35 0 -35 80 0 80 0 0 -40 0 -40 -80 0 -80 0 0
-40 0 -39 88 -3 87 -3 0 -35 0 -35 -137 -3 -138 -3 0 189 c0 104 3 192 7 195
3 4 64 7 135 7 l128 0 0 -40z m-166 -432 c-48 -81 -337 -378 -499 -513 -175
-146 -495 -368 -530 -368 -35 0 -355 222 -530 368 -179 149 -510 494 -491 512
3 3 137 -6 298 -21 572 -53 854 -52 1438 4 162 15 301 28 308 29 8 1 10 -4 6
-11z"/>
<path d="M3332 1747 c-30 -85 -30 -87 23 -87 53 0 54 4 22 88 l-23 61 -22 -62z"/>
</g>
</svg>
