<svg height="381" viewBox="0 0 357 381" width="357" xmlns="http://www.w3.org/2000/svg" xmlns:xlink="http://www.w3.org/1999/xlink"><g filter="url(#a)" transform="translate(1745 1189)"><g><path d="m213.63 14.7289v37.5685c-1.401 6.0118-4.506 11.5331-9.093 16.0116-6.451 6.2907-15.05 9.7578-24.199 9.7578h-57.522v-11.4376c0-4.8334-3.893-8.7877-8.651-8.7877h-14.7008c-4.7555 0-8.6478 3.9554-8.6478 8.7877v11.4376h-57.5253c-9.1488 0-17.7452-3.4671-24.19894-9.7578-4.59094-4.472-7.69079-9.9977-9.09216-16.0073v-37.5728c0-8.09853 6.52637-14.7289 14.4991-14.7289h184.6339c7.972 0 14.497 6.63037 14.497 14.7289zm-99.464 83.5622c.762 0 1.397-.6468 1.397-1.4195v-11.4398-7.365-11.4376c0-.7726-.635-1.4238-1.397-1.4238h-14.7019c-.7583 0-1.4014.6512-1.4014 1.4238v11.4376 7.365 11.4398c0 .7727.6431 1.4195 1.4014 1.4195zm66.172-12.8582c11.036 0 21.408-4.1974 29.223-11.812 1.488-1.4487 2.841-2.9864 4.069-4.6v79.7481c0 8.105-6.525 14.73-14.497 14.73h-184.6339c-7.97273 0-14.4991-6.625-14.4991-14.73v-79.7481c1.2262 1.6136 2.58496 3.1513 4.0697 4.6 7.8135 7.6146 18.1874 11.812 29.2214 11.812h57.5253v11.4398c0 4.8283 3.8923 8.7843 8.6478 8.7843h14.7008c4.758 0 8.651-3.957 8.651-8.7843v-11.4398z" fill="#142663" fill-rule="evenodd" transform="translate(-1673 -994)"/></g><g><path d="m83.3052 105.411c-31.0224 6.466-83.3052-47.823-83.3052-47.823l46.8455 116.858c2.6375-4.205 7.6648-7.063 13.3982-7.063h195.5803c6.692 0 12.421 3.894 14.511 9.28l46.665-119.075s-45.938 64.882-94.468 47.823c-48.53-17.0581-64.032-105.411-64.032-105.411s-18.741 93.6455-75.1948 105.411z" fill="#cc0003" fill-rule="evenodd" transform="translate(-1725 -1171)"/></g></g><filter id="a" color-interpolation-filters="sRGB" filterUnits="userSpaceOnUse" height="381" width="357" x="-1745" y="-1189"><feFlood flood-opacity="0" result="BackgroundImageFix"/><feColorMatrix in="SourceAlpha" type="matrix" values="0 0 0 0 0 0 0 0 0 0 0 0 0 0 0 0 0 0 255 0"/><feOffset dx="0" dy="2"/><feGaussianBlur stdDeviation="10"/><feColorMatrix type="matrix" values="0 0 0 0 1 0 0 0 0 1 0 0 0 0 1 0 0 0 1 0"/><feBlend in2="BackgroundImageFix" mode="normal" result="effect1_dropShadow"/><feBlend in="SourceGraphic" in2="effect1_dropShadow" mode="normal" result="shape"/></filter></svg>