<svg width="3064" height="3873" viewBox="0 0 3064 3873" xmlns="http://www.w3.org/2000/svg">

  <style>
    /* <![CDATA[ */

      path.outline {
        stroke-dasharray: 10262;
        stroke-dashoffset: 10262;
        animation: dash 6s linear forwards infinite;
      }

      @keyframes dash {
        0% {
          stroke-dashoffset: 10262;
        }
        10% {
          stroke-dashoffset: 10262;
        }
        50% {
          stroke-dashoffset: 0;
        }
        60% {
          stroke-dashoffset: 0;
        }
        100% {
            stroke-dashoffset: -10262;
        }
      }

    /* ]]> */
  </style>

  <g id="office-league-logo" fill-rule="evenodd" fill="none">
    <path stroke="#ffffff" stroke-width="110" id="svg_2" class="outline"
          d="m127.79898,817.500083l2866.701313,0l-287.268731,2272.319796l-1179.198998,712.225443l-1180.234879,-712.225443l-278.797686,-2272.319796z"/>
    <path id="svg_3" fill="#ffffff"
          d="m829.75,2440.75c0,19.66676 2.74997,37.33326 8.25,53c5.50003,15.66674 13.58328,29.33327 24.25,41c19.0001,21.33344 41.8332,32 68.5,32s49.66657,-10.66656 69,-32c21.33344,-24.00012 32,-55.4998 32,-94.5c0,-39.66687 -10.66656,-71.16655 -32,-94.5c-19.66676,-21.33344 -42.66653,-32 -69,-32c-27.00013,0 -50.16657,10.66656 -69.5,32c-21.0001,23.33345 -31.5,54.9998 -31.5,95zm100.5,-188.5c47.33357,0 87.33317,15.83317 120,47.5c36.00018,35.33351 54,82.16637 54,140.5c0,58.66696 -17.99982,105.49982 -54,140.5c-33.3335,31.66683 -73.3331,47.5 -120,47.5c-46.33356,0 -85.99983,-15.99984 -119,-48c-36.00018,-34.33351 -54,-81.16637 -54,-140.5c0,-58.66696 17.99982,-105.49982 54,-140.5c32.3335,-31.33349 71.99977,-47 119,-47zm299.33333,370l0,-159l105,0l0,-58.5l-105,0l0,-88l119,0l0,-59.5l-208,0c5.6667,3.33335 10.33332,10.66661 14,22c1.66668,4.66669 2.91667,9.58331 3.75,14.75c0.83334,5.16669 1.25,10.24997 1.25,15.25l0,260.5c0,5.33336 -0.58332,10.74997 -1.75,16.25c-1.16667,5.50003 -2.58332,10.91664 -4.25,16.25c-1.66667,4.66669 -3.66665,8.74998 -6,12.25c-2.33334,3.50002 -4.49999,6.08333 -6.5,7.75l88.5,0zm241.83334,0l0,-159l105,0l0,-58.5l-105,0l0,-88l119,0l0,-59.5l-208,0c5.66669,3.33335 10.33331,10.66661 14,22c1.66667,4.66669 2.91666,9.58331 3.75,14.75c0.83333,5.16669 1.25,10.24997 1.25,15.25l0,260.5c0,5.33336 -0.58333,10.74997 -1.75,16.25c-1.16668,5.50003 -2.58333,10.91664 -4.25,16.25c-1.66668,4.66669 -3.66666,8.74998 -6,12.25c-2.33335,3.50002 -4.49999,6.08333 -6.5,7.75l88.5,0zm242.33333,-365l-89.5,0c6.00003,3.00002 10.83331,10.33327 14.5,22c1.66668,4.66669 2.91666,9.66664 3.75,15s1.25,10.33331 1.25,15l0,313l70,0l0,-365zm239.83333,369.5c36.00018,0 61.49993,-2.66664 76.5,-8l28,-66.5c-24.66679,7.66671 -55.99981,11.5 -94,11.5c-80.66707,0 -121,-41.49959 -121,-124.5c0,-36.33352 10.4999,-65.83322 31.5,-88.5c21.66678,-22.66678 49.83316,-34 84.5,-34c31.33349,0 63.83317,7.16659 97.5,21.5l-0.5,-68.5c-16.33341,-5.33336 -32.49992,-9.24999 -48.5,-11.75s-31.83325,-3.75 -47.5,-3.75c-60.33363,0 -107.99982,17.99982 -143,54c-33.3335,34.33351 -50,79.83305 -50,136.5c0,49.66691 14.83319,91.33317 44.5,125c34.33351,38.00019 81.66637,57 142,57zm327.33334,-4.5l25,-59.5l-127,0l0,-99.5l104.5,0l0,-58.5l-104.5,0l0,-88l118.5,0l0,-59.5l-208,0c6.00003,3.00002 10.83331,10.33327 14.5,22c1.66667,4.66669 2.91666,9.58331 3.75,14.75c0.83333,5.16669 1.25,10.24997 1.25,15.25l0,260.5c0,10.33338 -2.16665,21.16661 -6.5,32.5c-1.66668,4.66669 -3.66666,8.74998 -6,12.25c-2.33335,3.50002 -4.49999,6.08333 -6.5,7.75l191,0zm-1444.19445,450l25,-59.5l-121.5,0l0,-305.5l-89.5,0c5.6667,3.33335 10.33332,10.66661 14,22c1.66668,4.66669 2.91666,9.58331 3.75,14.75c0.83334,5.16669 1.25,10.24997 1.25,15.25l0,260.5c0,5.33336 -0.58333,10.74997 -1.75,16.25c-1.16667,5.50003 -2.58332,10.91664 -4.25,16.25c-1.66667,4.66669 -3.66665,8.74998 -6,12.25s-4.49999,6.08333 -6.5,7.75l185.5,0zm238.75926,0l25,-59.5l-127,0l0,-99.5l104.5,0l0,-58.5l-104.5,0l0,-88l118.5,0l0,-59.5l-208,0c6.00003,3.00002 10.83332,10.33327 14.5,22c1.66668,4.66669 2.91666,9.58331 3.75,14.75c0.83334,5.16669 1.25,10.24997 1.25,15.25l0,260.5c0,10.33338 -2.16664,21.16661 -6.5,32.5c-1.66667,4.66669 -3.66665,8.74998 -6,12.25s-4.49999,6.08333 -6.5,7.75l191,0zm196.75926,-222l-30.5,92.5l94,0l-31.5,-93.5c-3.33335,-9.66672 -6.33332,-19.58328 -9,-29.75s-4.83332,-20.08328 -6.5,-29.75l-0.5,0c-1.66667,9.33338 -3.83332,18.99995 -6.5,29s-5.83331,20.49995 -9.5,31.5zm187,222l-82.5,0l-24,-74l-127.5,0l-23.5,74l-83,0c9.33338,-5.66669 18.66662,-22.66653 28,-51l106.5,-314l71.5,0l106.5,314c4.66669,14.00007 9.33331,25.16662 14,33.5s9.33331,14.16665 14,17.5zm263.25926,-64.5c-6.00003,2.00001 -12.91663,3.58333 -20.75,4.75s-16.41662,1.75 -25.75,1.75c-37.00018,0 -65.16657,-10.66656 -84.5,-32c-19.66676,-21.66678 -29.5,-51.66647 -29.5,-90c0,-41.33354 11.33322,-72.99989 34,-95c21.33344,-21.00011 50.49982,-31.5 87.5,-31.5c34.33351,0 64.8332,7.83326 91.5,23.5l0,-69.5c-27.00014,-11.00005 -55.99985,-16.5 -87,-16.5c-63.33365,0 -112.99982,17.16649 -149,51.5c-35.33351,33.66683 -53,79.49971 -53,137.5c0,28.33347 3.99996,53.66655 12,76s19.99992,41.66658 36,58c33.00017,34.00017 77.66639,51 134,51c46.00023,0 87.33315,-9.83324 124,-29.5l0,-156l-88,0c2.33335,1.66667 4.49999,4.33331 6.5,8s3.99999,7.83331 6,12.5c4.00002,10.66672 6,21.49995 6,32.5l0,63zm132.25926,-63c0,87.6671 45.99954,131.5 138,131.5c50.00025,0 87.66654,-12.66654 113,-38c23.33345,-23.00011 35,-54.4998 35,-94.5l0,-236.5l-70,0l0,233.5c0,51.66692 -24.33309,77.5 -73,77.5c-27.33347,0 -46.66661,-6.99993 -58,-21c-10.00005,-13.00007 -15,-31.99987 -15,-57l0,-233l-88,0c4.33335,3.33335 8.33331,9.99995 12,20c4.00002,10.66672 6,21.66661 6,33l0,184.5zm527.25926,127.5l25,-59.5l-127,0l0,-99.5l104.5,0l0,-58.5l-104.5,0l0,-88l118.5,0l0,-59.5l-208,0c6.00003,3.00002 10.83331,10.33327 14.5,22c1.66667,4.66669 2.91666,9.58331 3.75,14.75s1.25,10.24997 1.25,15.25l0,260.5c0,10.33338 -2.16665,21.16661 -6.5,32.5c-1.66668,4.66669 -3.66666,8.74998 -6,12.25c-2.33335,3.50002 -4.49999,6.08333 -6.5,7.75l191,0z"/>
    <g id="svg_4" fill-rule="nonzero">
      <path id="svg_5" fill="#ffffff"
            d="m2206.91,1209.647l0,237.025c-8.85,37.929 -28.44,72.764 -57.37,101.019c-40.71,39.689 -94.96,61.564 -152.68,61.564l-362.915,0l0,-72.162c0,-30.494 -24.564,-55.443 -54.58,-55.443l-92.751,0c-30.002,0 -54.56,24.956 -54.56,55.443l0,72.162l-362.935,0c-57.721,0 -111.9575,-21.875 -152.6757,-61.564c-28.9644,-28.214 -48.5215,-63.076 -57.3633,-100.992l0,-237.052c0,-51.095 41.1763,-92.927 91.4771,-92.927l1164.8829,0c50.3,0 91.47,41.832 91.47,92.927zm-627.538,527.206c4.805,0 8.814,-4.081 8.814,-8.955l0,-72.176l0,-46.467l0,-72.161c0,-4.875 -4.009,-8.983 -8.814,-8.983l-92.758,0c-4.784,0 -8.842,4.108 -8.842,8.983l0,72.161l0,46.467l0,72.176c0,4.874 4.058,8.955 8.842,8.955l92.758,0zm417.488,-81.124c69.63,0 135.07,-26.482 184.37,-74.524c9.39,-9.14 17.93,-18.841 25.68,-29.022l0,503.14c0,51.136 -41.17,92.937 -91.47,92.937l-1164.8829,0c-50.3008,0 -91.4771,-41.801 -91.4771,-92.937l0,-503.14c7.73633,10.181 16.3086,19.882 25.6763,29.022c49.2964,48.042 114.7467,74.524 184.3627,74.524l362.935,0l0,72.175c0,30.46 24.558,55.422 54.56,55.422l92.751,0c30.016,0 54.58,-24.969 54.58,-55.422l0,-72.175l362.915,0z"/>
      <path id="svg_6" fill="#cc0003"
            d="m1056.585,665.056c-195.725,40.792 -525.585,-301.724 -525.585,-301.724l295.555,737.268c16.641,-26.52 48.359,-44.55 84.531,-44.55l1233.944,0c42.22,0 78.37,24.56 91.55,58.54l294.42,-751.258s-289.83,409.348 -596.01,301.724c-306.18,-107.625 -403.99,-665.056 -403.99,-665.056s-118.242,590.823 -474.415,665.056z"/>
    </g>
  </g>
</svg>