<svg height="3873" viewBox="0 0 3064 3873" width="3064" xmlns="http://www.w3.org/2000/svg"><g fill="none" fill-rule="evenodd"><path d="m0 757h3064l-300 2372-1231.4591 743.46875-1232.5409-743.46875zm125 125 275.522193 2181.30257 1131.974567 683.69743 1130.98105-683.69743 275.52219-2181.30257z" fill="#132862"/><path d="m829.750001 2441.5c0 19.66676 2.749972 37.33326 8.25 53 5.500027 15.66674 13.58328 29.33327 24.25 41 19.000095 21.33344 41.8332 32 68.5 32s49.66657-10.66656 69-32c21.333439-24.00012 31.999999-55.4998 31.999999-94.5 0-39.66687-10.66656-71.16655-31.999999-94.5-19.666765-21.33344-42.666535-32-69-32-27.000135 0-50.16657 10.66656-69.5 32-21.000105 23.33345-31.5 54.9998-31.5 95zm100.5-188.5c47.33357 0 87.333169 15.83317 119.999999 47.5 36.00018 35.33351 54 82.16637 54 140.5 0 58.66696-17.99982 105.49982-54 140.5-33.3335 31.66683-73.333099 47.5-119.999999 47.5-46.333565 0-85.999835-15.99984-119-48-36.00018-34.33351-54-81.16637-54-140.5 0-58.66696 17.99982-105.49982 54-140.5 32.333495-31.33349 71.999765-47 119-47zm299.333329 370v-159h105v-58.5h-105v-88h119v-59.5h-208c5.6667 3.33335 10.33332 10.66661 14 22 1.66668 4.66669 2.91667 9.58331 3.75 14.75.83334 5.16669 1.25 10.24997 1.25 15.25v260.5c0 5.33336-.58332 10.74997-1.75 16.25-1.16667 5.50003-2.58332 10.91664-4.25 16.25-1.66667 4.66669-3.66665 8.74998-6 12.25-2.33334 3.50002-4.49999 6.08333-6.5 7.75zm241.83334 0v-159h105v-58.5h-105v-88h119v-59.5h-208c5.66669 3.33335 10.33331 10.66661 14 22 1.66667 4.66669 2.91666 9.58331 3.75 14.75.83333 5.16669 1.25 10.24997 1.25 15.25v260.5c0 5.33336-.58333 10.74997-1.75 16.25-1.16668 5.50003-2.58333 10.91664-4.25 16.25-1.66668 4.66669-3.66666 8.74998-6 12.25-2.33335 3.50002-4.49999 6.08333-6.5 7.75zm242.33333-365h-89.5c6.00003 3.00002 10.83331 10.33327 14.5 22 1.66668 4.66669 2.91666 9.66664 3.75 15s1.25 10.33331 1.25 15v313h70zm239.83333 369.5c36.00018 0 61.49993-2.66664 76.5-8l28-66.5c-24.66679 7.66671-55.99981 11.5-94 11.5-80.66707 0-121-41.49959-121-124.5 0-36.33352 10.4999-65.83322 31.5-88.5 21.66678-22.66678 49.83316-34 84.5-34 31.33349 0 63.83317 7.16659 97.5 21.5l-.5-68.5c-16.33341-5.33336-32.49992-9.24999-48.5-11.75s-31.83325-3.75-47.5-3.75c-60.33363 0-107.99982 17.99982-143 54-33.3335 34.33351-50 79.83305-50 136.5 0 49.66691 14.83319 91.33317 44.5 125 34.33351 38.00019 81.66637 57 142 57zm327.33334-4.5 25-59.5h-127v-99.5h104.5v-58.5h-104.5v-88h118.5v-59.5h-208c6.00003 3.00002 10.83331 10.33327 14.5 22 1.66667 4.66669 2.91666 9.58331 3.75 14.75.83333 5.16669 1.25 10.24997 1.25 15.25v260.5c0 10.33338-2.16665 21.16661-6.5 32.5-1.66668 4.66669-3.66666 8.74998-6 12.25-2.33335 3.50002-4.49999 6.08333-6.5 7.75zm-1444.194448 450 25-59.5h-121.5v-305.5h-89.5c5.666695 3.33335 10.333315 10.66661 14 22 1.666675 4.66669 2.916663 9.58331 3.75 14.75.833338 5.16669 1.25 10.24997 1.25 15.25v260.5c0 5.33336-.583327 10.74997-1.75 16.25-1.166672 5.50003-2.583325 10.91664-4.25 16.25-1.666675 4.66669-3.666655 8.74998-6 12.25s-4.49999 6.08333-6.5 7.75zm238.759258 0 25-59.5h-126.999998v-99.5h104.499998v-58.5h-104.499998v-88h118.499998v-59.5h-207.999998c6.00003 3.00002 10.833315 10.33327 14.5 22 1.666675 4.66669 2.916662 9.58331 3.75 14.75.833337 5.16669 1.25 10.24997 1.25 15.25v260.5c0 10.33338-2.166645 21.16661-6.5 32.5-1.666675 4.66669-3.666655 8.74998-6 12.25s-4.49999 6.08333-6.5 7.75zm196.75926-222-30.5 92.5h94l-31.5-93.5c-3.33335-9.66672-6.33332-19.58328-9-29.75s-4.83332-20.08328-6.5-29.75h-.5c-1.66667 9.33338-3.83332 18.99995-6.5 29s-5.83331 20.49995-9.5 31.5zm187 222h-82.5l-24-74h-127.5l-23.5 74h-83c9.33338-5.66669 18.66662-22.66653 28-51l106.5-314h71.5l106.5 314c4.66669 14.00007 9.33331 25.16662 14 33.5s9.33331 14.16665 14 17.5zm263.25926-64.5c-6.00003 2.00001-12.91663 3.58333-20.75 4.75s-16.41662 1.75-25.75 1.75c-37.00018 0-65.16657-10.66656-84.5-32-19.66676-21.66678-29.5-51.66647-29.5-90 0-41.33354 11.33322-72.99989 34-95 21.33344-21.00011 50.49982-31.5 87.5-31.5 34.33351 0 64.8332 7.83326 91.5 23.5v-69.5c-27.00014-11.00005-55.99985-16.5-87-16.5-63.33365 0-112.99982 17.16649-149 51.5-35.33351 33.66683-53 79.49971-53 137.5 0 28.33347 3.99996 53.66655 12 76s19.99992 41.66658 36 58c33.00017 34.00017 77.66639 51 134 51 46.00023 0 87.33315-9.83324 124-29.5v-156h-88c2.33335 1.66667 4.49999 4.33331 6.5 8s3.99999 7.83331 6 12.5c4.00002 10.66672 6 21.49995 6 32.5zm132.25926-63c0 87.6671 45.99954 131.5 138 131.5 50.00025 0 87.66654-12.66654 113-38 23.33345-23.00011 35-54.4998 35-94.5v-236.5h-70v233.5c0 51.66692-24.33309 77.5-73 77.5-27.33347 0-46.66661-6.99993-58-21-10.00005-13.00007-15-31.99987-15-57v-233h-88c4.33335 3.33335 8.33331 9.99995 12 20 4.00002 10.66672 6 21.66661 6 33zm527.25926 127.5 25-59.5h-127v-99.5h104.5v-58.5h-104.5v-88h118.5v-59.5h-208c6.00003 3.00002 10.83331 10.33327 14.5 22 1.66667 4.66669 2.91666 9.58331 3.75 14.75s1.25 10.24997 1.25 15.25v260.5c0 10.33338-2.16665 21.16661-6.5 32.5-1.66668 4.66669-3.66666 8.74998-6 12.25-2.33335 3.50002-4.49999 6.08333-6.5 7.75z" fill="#132862"/><g fill-rule="nonzero" transform="translate(531)"><path d="m1675.91 1210.397v237.025c-8.85 37.929-28.44 72.764-57.37 101.019-40.71 39.689-94.96 61.564-152.68 61.564h-362.915v-72.162c0-30.494-24.564-55.443-54.58-55.443h-92.751c-30.002 0-54.56 24.956-54.56 55.443v72.162h-362.935c-57.721 0-111.9575-21.875-152.6757-61.564-28.9644-28.214-48.5215-63.076-57.3633-100.992v-237.052c0-51.095 41.1763-92.927 91.4771-92.927h1164.8829c50.3 0 91.47 41.832 91.47 92.927zm-627.538 527.206c4.805 0 8.814-4.081 8.814-8.955v-72.176-46.467-72.161c0-4.875-4.009-8.983-8.814-8.983h-92.758c-4.784 0-8.842 4.108-8.842 8.983v72.161 46.467 72.176c0 4.874 4.058 8.955 8.842 8.955zm417.488-81.124c69.63 0 135.07-26.482 184.37-74.524 9.39-9.14 17.93-18.841 25.68-29.022v503.14c0 51.136-41.17 92.937-91.47 92.937h-1164.8829c-50.3008 0-91.4771-41.801-91.4771-92.937v-503.14c7.73633 10.181 16.3086 19.882 25.6763 29.022 49.2964 48.042 114.7467 74.524 184.3627 74.524h362.935v72.175c0 30.46 24.558 55.422 54.56 55.422h92.751c30.016 0 54.58-24.969 54.58-55.422v-72.175z" fill="#142663"/><path d="m525.585 665.806c-195.725 40.792-525.585-301.724-525.585-301.724l295.555 737.268c16.641-26.52 48.359-44.55 84.531-44.55h1233.944c42.22 0 78.37 24.56 91.55 58.54l294.42-751.258s-289.83 409.348-596.01 301.724c-306.18-107.625-403.99-665.056-403.99-665.056s-118.242 590.823-474.415 665.056z" fill="#cc0003"/></g></g></svg>